<svg width="613" height="608" viewBox="0 0 613 608" fill="none" xmlns="http://www.w3.org/2000/svg">
<path d="M303.506 354.384C299.233 352.385 294.621 351.321 289.751 350.739C286.008 350.291 282.293 349.845 278.494 350.086C276.232 350.232 273.989 350.424 271.802 350.916L271.861 357.35C277.736 356.014 283.994 355.315 290.392 355.723C282.033 356.676 276.158 358.022 271.879 359.383L271.95 367.278C280.805 362.981 285.671 361.616 286.212 361.505C291.741 360.36 297.303 359.426 302.983 358.965C305.903 358.727 308.635 359.185 311.391 359.745C312.196 359.909 313.019 360.017 313.934 360.166C311.119 357.245 307.775 356.128 305.402 355.126C304.78 354.863 304.115 354.671 303.509 354.387L303.506 354.384Z" fill="#F0F0EC" fill-opacity="0.4"/>
<path d="M462.965 289.726C459.918 301.699 455.132 312.984 449.096 323.741C444.335 332.227 439.444 340.642 435.66 349.632C434.438 352.537 433.421 355.525 432.307 358.473L431.843 360.005C431.843 360.005 433.238 358.514 434.194 357.49C435.744 355.835 437.223 354.108 438.838 352.521C443.153 348.283 447.555 344.131 451.868 339.89C453.279 338.501 454.532 336.951 455.85 335.466C460.261 330.485 463.673 324.815 467.002 319.097C471.222 311.855 474.325 304.171 475.637 295.849C476.995 287.227 477.508 278.567 476.295 269.877C476.008 267.808 475.59 265.757 475.234 263.699C476.054 284.065 469.428 302.283 460.029 319.756C459.918 319.261 460.035 318.831 460.205 318.42C461.508 315.283 462.953 312.199 464.106 309.009C468.103 297.962 471.101 286.701 471.822 274.88C472.416 265.126 472.001 260.009 468.954 250.771C468.057 247.51 465.839 244.865 465.839 244.865C465.839 244.865 467.052 250.994 467.578 253.933C468.985 261.797 468.366 266.078 466.581 273.98C465.393 279.23 464.298 284.504 462.971 289.723L462.965 289.726Z" fill="#F0F0EC" fill-opacity="0.4"/>
<path d="M331.188 244.12C328.215 245.271 326.544 245.729 326.238 245.791C320.71 246.935 315.147 247.867 309.467 248.331C306.547 248.569 303.815 248.111 301.059 247.551C300.254 247.387 299.431 247.279 298.516 247.13C301.331 250.051 304.675 251.167 307.048 252.17C307.67 252.433 308.335 252.625 308.941 252.909C313.214 254.908 317.826 255.972 322.696 256.554C323.633 256.665 324.567 256.776 325.505 256.878C325.551 256.804 325.607 256.73 325.653 256.656C326.56 255.065 327.386 253.426 328.165 251.758C324.082 252.191 319.964 252.281 315.899 251.904C320.762 251.35 325.109 250.642 328.988 249.868C329.799 247.99 330.538 246.078 331.185 244.12H331.188Z" fill="#F0F0EC" fill-opacity="0.4"/>
<path d="M293.974 580.224C293.108 574.136 289.479 563.549 284.826 555.868C283.471 553.662 281.47 552.007 279.332 550.562C274.379 547.215 269.271 544.177 263.653 542.002C254.833 538.59 246.088 534.989 237.311 531.468C231.618 529.185 225.617 527.938 219.757 526.209C216.348 525.203 212.924 524.251 209.536 523.18C201.879 520.755 195.738 516.189 191.03 509.723C189.316 507.369 187.84 504.841 186.253 502.394C184.264 499.328 179.933 488.831 179.806 488.064C179.722 488.104 178.046 486.103 177.557 485.663C169.702 478.607 162.488 470.944 155.747 462.82C152.659 459.098 149.442 455.482 146.429 451.701C144.257 448.979 142.348 446.046 140.269 443.246C138.914 441.421 137.355 439.738 136.086 437.857C133.5 434.027 130.991 430.142 128.557 426.213C123.161 417.492 118.493 408.365 114.316 399.02C111.739 393.256 109.858 387.18 107.696 381.231C106.53 378.023 105.339 374.821 104.324 371.563C103.077 367.56 101.895 363.529 100.878 359.461C99.3772 353.459 98.0593 347.414 96.6331 341.394C95.2193 335.426 94.4923 329.366 94.0778 323.256C93.7839 318.931 93.2239 314.618 93.0785 310.294C92.9517 306.529 93.1095 302.742 93.3724 298.98C93.7251 293.944 94.1149 288.901 94.8202 283.905C95.8566 276.551 98.0438 269.476 100.677 262.54C102.768 257.027 104.674 251.437 107.028 246.038C108.983 241.556 111.433 237.283 113.738 232.958C115.409 229.821 117.252 226.774 118.923 223.637C121.856 218.131 125.775 213.338 129.615 208.475C135.381 201.171 141.915 194.656 149.21 188.889C149.646 188.543 150.064 188.172 150.379 187.661C142.852 189.873 137.497 195.244 131.712 200.225C132.303 199.231 132.9 198.241 133.479 197.239C137.661 190.009 144.192 185.755 151.858 183.166C154.583 182.244 157.578 182.13 160.449 181.635C163.168 181.164 165.885 180.679 168.824 180.159C168.443 181.393 168.112 182.739 167.611 184.017C166.237 187.531 164.598 190.891 162.259 193.91C158.766 198.424 154.633 202.05 149.522 204.695C145.807 206.619 137.698 208.803 137.698 208.803C137.698 208.803 147.459 203.581 150.788 200.444C153.374 198.009 155.818 195.417 158.253 192.828C161.191 189.233 164.635 183.07 164.635 183.07C164.635 183.07 155.054 185.573 144.823 195.708C139.31 201.075 126.512 217.735 126.072 219.254C126.453 219.031 126.83 218.805 127.211 218.582C129.045 217.503 130.818 216.296 132.73 215.374C137.463 213.085 142.5 212.618 147.706 212.98C151.802 213.264 155.92 213.227 160.189 213.338C160.294 214.137 159.623 214.765 159.057 215.442C155.236 220.008 150.809 223.891 145.807 227.118C145.03 227.619 144.275 228.157 143.493 228.652C140.6 230.474 137.711 232.154 134.156 232.606C131.576 232.934 129.089 233.998 126.567 234.75C125.899 234.948 125.246 235.204 124.501 235.257C125.494 234.31 126.747 233.766 128 233.392C135.084 231.282 141.244 227.52 146.936 222.923C149.077 221.193 151.131 219.356 153.114 217.348C146.067 216.865 139.143 217.014 132.665 219.872C126.447 222.616 121.735 227.266 117.784 232.736C123.721 226.459 131.168 223.136 139.394 221.298C139.394 221.298 140.479 221.082 140.523 221.153C140.557 221.212 139.623 221.682 139.623 221.682C139.001 222.022 138.388 222.387 137.754 222.703C135.335 223.913 132.9 225.088 130.484 226.307C124.937 229.107 120.414 233.2 116.157 237.645C113.88 240.024 111.696 242.434 110.539 245.593C109.877 247.397 109.23 249.206 108.497 250.979C106.728 254.701 106.208 256.204 106.257 256.235C106.326 256.278 106.913 255.366 106.913 255.366C107.402 254.651 107.906 253.946 108.377 253.219C112.801 246.342 118.159 243.183 125.788 240.368C128.671 239.304 141.732 237.11 145.188 237.181C141.813 240.027 139.502 243.805 137.568 246.741C133.172 253.417 127.56 258.76 119.712 261.287C115.39 262.679 111.532 264.931 108.002 267.765C107.906 267.842 107.012 268.48 107.012 268.48C107.037 267.926 107.746 266.952 108.008 266.611C110.514 263.391 113.961 261.374 117.373 259.301C122.481 256.195 127.573 253.064 131.514 248.433C134.407 245.816 136.854 241.989 137.296 241.203C133.939 241.967 130.951 242.536 128.028 243.338C120.213 245.472 113.961 250.011 108.887 256.223C107.681 257.701 106.756 259.412 105.75 261.049C105.472 261.5 105.162 262.153 105.073 262.973C107.993 260.319 110.462 257.804 113.212 255.647C115.972 253.485 118.991 251.647 122.1 250.008C122.1 250.008 123.443 249.389 123.483 249.451C123.529 249.519 122.369 250.394 122.369 250.394C119.842 252.306 117.293 254.19 114.79 256.133C110.081 259.79 106.09 264.133 103.062 269.262C102.109 270.874 101.608 272.808 101.168 274.661C100.154 278.939 99.2999 283.261 98.6626 287.673C98.9008 287.694 99.2442 286.432 99.3246 286.179C101.642 279.063 106.056 274.438 111.869 270.051C114.258 268.248 117.289 267.258 120.102 266.067C122.793 264.928 130.957 263.969 134.079 264.201C134.079 264.201 133.587 264.665 133.469 264.77C129.621 268.266 126.861 272.619 124.278 277.028C121.865 281.148 118.747 284.622 115.384 287.88C113.685 289.523 111.442 290.602 109.444 291.936L108.321 292.582L109.128 291.586C111.347 289.102 113.682 286.714 115.749 284.112C117.825 281.495 119.638 278.67 121.546 275.923C123.474 273.145 125.376 270.351 127.576 267.153C125.871 267.688 124.529 267.941 123.341 268.514C117.738 271.205 112.401 274.333 107.9 278.692C103.631 282.828 100.333 287.561 99.0833 293.501C99.0245 293.78 98.8265 295.413 98.8265 295.413C101.172 290.838 104.008 286.336 107.733 283.045C108.624 282.256 109.586 281.547 110.768 280.997C110.524 281.359 110.31 281.752 110.026 282.079C104.061 288.984 100.104 296.975 97.422 305.628C96.7723 307.72 96.5805 311.599 97.289 314.136C97.289 314.136 98.1552 310.758 98.4058 309.984C99.8753 305.452 103.124 302.253 106.477 299.147C108.94 296.867 111.733 295.048 114.62 293.316C117.784 291.416 120.745 289.182 123.795 287.097C124.123 286.875 124.467 286.677 124.946 286.377C125.723 289.009 125.596 291.546 124.881 293.882C122.58 301.418 118.793 308.125 112.995 313.582C112.736 313.827 112.463 314.055 112.176 314.266C112.083 314.334 111.461 314.708 111.115 314.782C111.356 314.244 111.987 313.427 112.21 313.031C114.573 308.809 116.974 304.604 119.313 300.366C120.962 297.378 122.295 294.593 122.273 291.438C121.874 291.698 121.556 291.877 121.268 292.097C119.124 293.746 116.448 295.509 114.193 296.985C111.062 299.036 108.398 301.585 105.787 304.208C103.136 306.872 100.138 312.997 99.767 316.713C102.366 311.605 105.991 307.945 110.14 304.663C109.985 304.966 109.858 305.288 109.673 305.57C108.027 308.066 106.326 310.526 104.729 313.05C102.084 317.233 100.197 321.768 98.9441 326.538C98.6131 327.797 98.7275 329.255 98.9596 330.563C100.352 338.403 101.806 346.229 103.312 354.047C103.662 355.857 104.237 357.63 104.816 359.384C107.504 367.56 110.041 375.792 113.005 383.867C115.207 389.865 117.871 395.709 120.547 401.519C122.688 406.166 125.017 410.738 127.526 415.196C129.543 418.785 131.814 422.256 134.215 425.603C139.564 433.062 145.009 440.456 150.525 447.794C154.286 452.8 158.042 457.83 162.141 462.554C166.612 467.705 171.113 472.862 176.289 477.357C176.545 477.58 177.087 477.837 177.087 477.837C177.087 477.837 176.759 474.987 176.499 473.549C175.274 466.74 174.593 459.896 174.42 452.976C174.281 447.358 173.845 441.758 174.07 436.122C174.401 427.806 174.482 419.478 174.711 411.159C174.841 406.503 174.244 401.924 173.303 397.386C173.111 396.455 172.647 395.524 172.103 394.735C170.154 391.923 167.778 389.507 165.25 387.192C160.158 382.533 155.211 377.71 150.197 372.965C149.374 372.185 148.47 371.489 147.651 370.706C144.65 367.848 142.057 364.634 139.647 361.28C138.199 359.263 136.773 357.196 135.626 355C134.311 352.485 133.305 349.809 132.195 347.192C131.808 346.276 131.468 345.335 131.192 344.379C129.71 339.256 128.201 334.139 126.806 328.992C125.565 324.413 125.352 319.717 125.822 315.027C126.28 310.476 127.83 306.182 129.698 302.043C130.892 299.398 132.455 296.923 133.794 294.343C139.715 282.912 147.094 272.464 155.249 262.543C159.719 257.104 164.239 251.706 169.315 246.806C174.33 241.964 179.181 236.94 184.378 232.306C187.475 229.546 189.953 226.654 191.398 222.666C194.077 215.263 196.051 207.742 196.806 199.9C196.951 198.387 195.964 197.078 194.544 196.271C194.374 196.605 192.391 204.772 191.478 208.5C190.006 214.514 187.051 219.758 183.271 224.538C177.86 231.371 171.589 237.382 164.929 242.985C164.18 243.613 163.335 244.13 162.534 244.699C163.96 242.629 165.721 240.962 167.264 239.112C173.473 231.675 179.524 224.135 184.06 215.479C187.361 209.174 189.718 202.585 191.079 195.627C191.667 192.62 191.138 191.596 188.459 189.932C183.398 207.643 176.01 218.96 169.535 225.187C169.95 224.411 170.194 223.919 170.469 223.445C172.616 219.755 174.915 216.148 176.335 212.079C176.92 210.403 177.575 208.748 178.194 207.08C180.75 200.206 182.754 193.196 183.639 185.882C183.788 184.648 183.46 183.915 182.714 183.055C178.191 177.833 173.891 172.437 170.123 166.627C167.957 163.286 165.55 160.1 163.264 156.836C163.023 156.49 162.865 156.087 162.667 155.71C165.244 158.052 167.555 160.561 169.928 163.011C175.62 168.898 181.288 174.816 187.079 180.601C189.235 182.758 191.698 184.611 194.065 186.551C195.237 187.513 196.555 187.896 198.012 187.07C198.38 186.86 198.801 186.742 199.194 186.575C204.203 184.438 208.574 181.208 213.122 178.303C216.166 176.36 218.842 173.848 221.784 171.735C227.674 167.506 233.648 163.391 239.566 159.2C244.265 155.874 248.862 152.397 253.639 149.182C258.827 145.693 264.154 142.41 269.451 139.082C274.066 136.177 278.568 133.061 283.644 130.955C284.557 130.574 285.436 130.107 286.351 129.736C290.042 128.251 293.705 126.688 297.448 125.358C299.23 124.724 301.182 124.309 303.094 124.931C305.999 125.875 308.938 126.76 311.741 127.954C316.05 129.794 320.255 131.886 324.512 133.847C325.217 134.172 325.956 134.441 326.708 134.63C329.885 135.422 333.075 135.137 336.249 134.624C336.982 134.503 337.678 134.144 338.396 133.89C338.396 133.03 338.359 132.39 338.402 131.759C338.885 128.251 334.683 127.242 333.96 126.803C335.596 126.794 337.044 127.094 338.458 127.514C339.776 127.904 340.404 128.857 340.37 130.252C340.345 131.357 340.363 132.464 340.363 133.609C341.22 133.609 341.935 133.686 342.631 133.596C346.025 133.16 349.217 132.245 351.411 129.355C351.81 128.829 352.24 128.031 352.129 127.459C351.64 123.199 350.981 121.875 347.21 119.202C349.18 119.718 351.952 120.114 353.252 121.237C354.86 122.626 354.703 124.811 355.018 126.905C356.559 126.636 357.954 126.416 359.34 126.147C360.933 125.838 362.214 124.996 363.328 123.821C364.491 122.592 365.252 121.395 364.076 119.725C363.634 119.1 363.386 118.317 363.148 117.574C362.854 116.659 362.26 116.176 361.357 115.947C356.568 114.728 352.231 112.355 347.646 110.62C345.264 109.717 342.78 108.968 340.274 108.547C336.629 107.932 332.923 107.69 329.248 107.254C327.481 107.044 325.696 106.88 323.973 106.471C317.607 104.965 311.258 103.375 304.907 101.791C302.636 101.225 300.233 101.163 298.182 101.958C292.554 104.136 287.047 106.648 281.55 109.144C278.317 110.611 275.205 112.343 272.006 113.887C262.843 118.311 253.673 122.716 244.491 127.1C238.588 129.921 232.664 132.699 226.746 135.484C225.87 135.895 224.967 136.245 224.073 136.622C224.806 135.218 225.759 134.122 226.774 133.089C231.213 128.575 235.705 124.118 240.111 119.573C247.644 111.802 255.353 104.235 263.963 97.6266C269.092 93.6884 274.159 89.6635 279.972 86.7555C283.57 84.955 287.307 83.5041 291.447 84.7199C296.489 86.2017 301.656 87.4052 306.491 89.4006C310.794 91.1763 314.81 90.703 318.983 89.6171C319.63 89.4501 320.607 88.8685 320.719 88.6674C320.83 88.4663 320.802 87.6279 320.79 87.2072C320.74 85.3819 319.664 84.4538 318.012 83.6185C316.36 82.7801 316.558 83.0802 315.979 82.7771C316.691 82.5234 317.532 82.5976 318.083 82.6719C321.73 83.272 322.346 85.5675 322.479 87.0772C322.522 87.5753 322.55 87.9094 322.742 88.0363C322.937 88.1631 323.531 88.1353 324.004 88.061C326.123 87.7331 327.97 87.0401 329.489 85.9852C330.863 85.0292 332.354 83.7887 332.354 82.1862C332.354 80.2001 332.626 78.1087 330.009 75.4699C329.403 74.9841 328.809 74.483 328.212 73.988C331.769 74.5418 334.3 76.1226 334.742 79.671C334.776 79.9433 334.779 80.4197 334.95 80.5032C335.12 80.5868 335.534 80.3919 335.902 80.2898C339.398 79.3245 342.903 76.4289 343.194 74.7954C343.513 72.9918 341.873 72.5649 341.264 71.3677C340.834 70.52 340.199 70.1859 339.293 69.9662C336.119 69.1897 332.963 68.3359 329.82 67.4356C326.535 66.4952 323.28 65.4124 319.822 65.366C316.617 65.3227 313.412 65.4062 310.21 65.3412C307.79 65.2917 305.362 65.2268 302.964 64.936C297.736 64.3018 292.542 63.3737 287.304 62.8756C285.405 62.6962 283.174 62.9282 281.519 63.7882C276.668 66.3095 271.95 69.1124 267.329 72.039C260.238 76.531 253.293 81.2457 246.245 85.8027C244.216 87.1144 242.032 88.1817 239.943 89.4037C231.903 94.1153 223.872 98.8424 215.844 103.576C215.371 103.854 214.959 104.244 214.563 104.547C216.453 111.573 216.064 128.272 213.966 132.09C213.901 131.629 213.935 130.787 213.938 130.45C214.047 121.797 212.261 113.463 209.434 105.364C206.708 97.5554 203.052 90.1369 199.163 82.842C198.736 82.0408 198.34 81.2271 197.926 80.4104C200.552 78.183 202.937 75.9339 205.548 73.9849C215.507 66.5509 224.188 57.6721 233.524 49.5327C234.31 48.849 234.759 48.0663 234.929 47.0052C235.229 45.1118 235.68 43.2371 236.098 41.3623C237.292 36.0227 238.539 30.6985 237.911 25.1423C237.691 23.2026 237.496 22.6365 235.597 22.4941C231.507 22.191 227.965 20.2976 224.259 18.8684C224.058 18.791 223.275 18.559 222.848 18.0578C224.15 17.9434 225.781 17.8506 226.737 17.7175C228.618 17.4515 231.464 17.6433 233.103 16.3749C234.35 15.4097 233.493 14.6455 232.191 13.702C230.461 12.4491 228.726 11.2054 226.99 9.96176C226.229 9.41727 225.453 9.18834 224.441 9.16359C215.296 8.93776 206.3 10.5929 197.223 11.2147C191.386 11.6138 185.628 12.5604 179.871 13.5195C177.984 13.835 175.908 13.7205 174.231 14.4847C169.448 16.6719 164.724 19.0293 160.177 21.6589C155.502 24.3627 151.05 27.4564 146.524 30.4139C145.76 30.912 145.005 31.4967 144.421 32.1896C140.94 36.2887 138.289 40.9292 135.941 45.7306C134.861 47.9394 133.33 49.6904 131.332 50.9248C126.611 53.8421 121.806 56.6264 116.977 59.3612C113.756 61.1834 110.292 62.6003 107.189 64.5926C99.0431 69.827 91.0181 75.2471 82.9839 80.6548C79.321 83.1205 75.5963 85.5335 72.1933 88.3271C67.2465 92.3921 62.5194 96.7325 57.783 101.045C53.8881 104.59 50.0118 108.167 47.2553 112.761C45.8261 115.14 44.2112 117.407 42.7355 119.759C37.7207 127.74 30.0979 139.66 26.5186 148.353C22.7134 157.597 20.1178 167.221 18.8339 177.158C17.9739 183.813 17.6615 190.501 18.2616 197.196C18.4132 198.882 18.803 200.559 19.233 202.201C19.6228 203.696 20.8727 204.5 22.3762 204.587C25.5843 204.769 28.316 203.365 31.0013 201.932C34.0733 200.289 37.0772 198.517 39.7409 196.231C42.9799 193.449 46.3365 190.798 49.4766 187.909C52.7218 184.923 55.8743 181.823 58.8689 178.591C63.0763 174.049 67.3455 169.532 71.1507 164.66C76.8368 157.38 84.2616 145.603 87.8286 137.102C90.5293 130.67 93.6014 124.393 97.3075 118.465C99.3463 115.205 101.506 112.021 103.634 108.819C108.562 101.404 113.741 94.171 119.52 87.3866C123.356 82.8822 127.403 78.5635 131.981 74.8016C134.499 72.732 137.2 70.8851 139.731 69.0041C140.968 70.1828 141.98 71.1697 143.022 72.1225C143.709 72.7474 143.917 73.493 143.929 74.4087C143.96 76.6176 143.706 78.7708 143.347 80.958C142.905 83.6495 141.955 85.979 140.238 88.0796C138.66 90.0069 137.234 92.0549 135.697 94.0163C133.55 96.7573 131.443 99.5385 129.166 102.171C126.793 104.915 124.297 107.557 121.754 110.144C117.815 114.153 114.097 118.348 110.381 122.565C106.477 126.995 102.273 131.137 99.0802 136.161C97.357 138.871 95.5194 141.513 94.8357 144.721C93.5921 150.562 92.4876 156.425 90.7707 162.166C89.3259 166.996 88.4844 172.001 87.1789 176.874C86.6901 178.696 85.96 180.62 84.7999 182.065C79.5438 188.617 74.1361 195.046 68.7005 201.453C66.3989 204.163 63.8652 206.678 61.4985 209.332C60.459 210.499 59.6887 211.915 58.5905 213.011C55.9578 215.631 53.5355 218.412 51.3513 221.416C47.9607 226.075 44.3751 230.604 41.1701 235.384C37.5258 240.819 34.1785 246.459 30.7569 252.04C29.1203 254.71 27.4993 257.398 26.07 260.183C24.056 264.105 22.3947 268.214 20.2818 272.078C17.6769 276.836 15.6537 281.847 13.5129 286.803C9.35809 296.422 6.16853 306.383 3.42756 316.496C1.85289 322.297 1.262 328.243 0.420528 334.152C-0.430226 340.126 0.0987884 346.081 1.2125 351.965C1.97973 356.015 5.63024 374.796 27.5581 409.294C33.0678 418.036 38.8746 426.575 46.1076 434.033C46.2685 434.201 47.2801 435.215 47.2801 435.215C47.2801 435.215 46.485 435.07 45.7982 434.504C41.8445 431.023 37.8073 427.633 33.9867 424.01C31.6726 421.814 29.6865 419.267 27.5797 416.858C27.1002 416.307 26.664 415.886 25.8473 415.806C22.568 415.487 19.4032 414.667 16.4116 413.26C13.5871 411.929 5.44153 409.748 3.41828 411.558C1.39503 413.368 3.39662 421.532 3.94729 423.58C10.0604 449.681 29.1946 461.886 41.9033 462.916C47.3327 463.095 56.0382 456.271 60.7715 453.499C61.9564 452.806 63.0206 452.738 64.156 453.428C66.8258 455.052 83.9522 455.804 90.7212 456.642C98.1119 457.558 105.552 458.238 112.763 460.249C127.282 464.534 131.888 470.412 136.09 474.898C138.475 477.444 140.789 480.058 143.118 482.656C150.59 490.978 157.881 499.436 163.762 509.011C165.343 511.582 166.407 514.342 167.416 517.151C168.892 521.265 169.185 525.609 169.903 529.869C170.247 532.18 170.008 533.696 170.008 533.696C170.008 533.696 169.192 531.991 168.991 531.419C166.902 525.417 163.936 519.82 160.972 514.23C159.676 511.786 158.098 509.481 156.548 507.18C154.921 504.761 153.349 502.273 151.456 500.074C144.715 492.25 137.723 484.658 130.156 477.608C127.421 475.058 124.6 472.905 120.971 471.618C115.931 469.836 110.892 468.129 105.685 466.938C105.082 466.798 103.473 466.396 102.681 466.266C103.257 468.101 104.927 469.92 106.168 471.185C109.759 474.854 113.011 478.82 115.944 483.037C122.233 492.083 126.072 502.267 129.642 512.578C131.372 517.575 132.439 522.725 133.188 527.941C133.417 529.538 133.457 531.214 133.259 532.811C132.863 536.013 132.823 539.193 133.274 542.376C133.59 544.594 134.323 546.692 135.712 548.455C139.084 552.737 143.746 554.732 148.99 555.274C154.723 555.865 160.495 556.029 166.237 556.53C174.618 557.263 182.832 558.974 190.946 561.158C196.335 562.609 201.39 564.914 206.374 567.364C207.572 567.952 208.735 568.74 209.691 569.665C210.681 570.624 211.708 571.444 212.97 571.964C214.229 572.484 215.108 573.365 215.531 574.655C216.262 576.871 217.137 579.058 217.638 581.325C218.353 584.577 218.74 587.899 219.371 591.169C219.55 592.11 219.847 593.233 220.494 593.842C222.622 595.853 225.026 597.518 227.956 598.186C231.618 598.845 232.927 596.042 233.592 593.917C234.52 590.953 234.957 587.964 234.823 584.877C234.808 584.524 234.854 584.168 234.882 583.553C237.676 587.584 237.599 593.106 234.836 598.405C234.319 599.303 233.394 600.432 233.444 600.865C233.493 601.298 234.783 602.947 235.303 603.535C236.284 604.642 237.431 605.623 238.607 606.532C240.135 607.717 241.274 607.643 242.923 606.675C245.249 605.307 246.651 603.476 247.226 600.704C247.984 597.057 248.714 593.471 247.959 589.762C247.306 586.566 246.595 583.383 245.852 580.209C245.401 578.278 244.838 576.376 244.318 574.461C243.35 570.912 241.314 567.874 239.591 564.691C238.746 563.132 238.112 561.285 236.85 560.168C235.535 559.002 233.58 558.559 231.9 557.804C231.513 557.631 231.117 557.467 230.718 557.325C224.485 555.138 218.254 552.941 212.014 550.772C206.105 548.718 200.209 546.615 193.975 545.702C193.579 545.643 191.676 545.377 191.676 545.377C191.676 545.377 194.541 544.004 196.595 544.245C201.697 544.83 206.65 546.129 211.615 547.382C217.672 548.91 223.461 551.326 229.635 552.52C232.81 553.133 235.832 554.575 238.892 555.725C240.68 556.397 242.48 557.102 244.138 558.033C246.672 559.453 259.003 563.023 261.277 569.523C261.986 572.041 262.864 574.529 263.381 577.087C264.093 580.629 264.761 584.187 264.779 587.844C264.786 588.905 265.16 590.226 265.856 590.971C267.941 593.214 270.332 595.145 273.312 596.138C279.716 597.784 280.953 587.785 281.402 585.499C281.658 584.175 281.612 582.795 281.702 581.437C282.231 581.842 282.503 582.303 282.707 582.795C283.966 585.82 283.666 588.933 283.196 592.054C282.868 594.229 281.893 596.19 280.557 597.808C280.071 598.396 279.477 599.037 279.453 599.445C279.428 599.853 279.926 600.596 280.306 601.236C281.439 603.154 282.896 604.785 284.647 606.17C286.212 607.411 287.425 607.55 289.148 606.693C291.679 605.434 293.365 603.717 294.113 600.757C295.079 596.939 295.796 593.211 295.549 589.236C295.354 586.148 294.413 583.247 293.987 580.227L293.974 580.224ZM131.161 361.797C134.666 365.927 142.131 374.867 145.81 381.912C146.914 384.139 148.241 386.274 149.176 388.569C151.267 393.711 152.972 398.976 153.541 404.557C153.94 408.449 154.549 412.319 154.976 416.208C155.224 418.466 155.236 420.752 155.453 423.014C155.895 427.617 156.409 432.211 156.882 436.812C156.901 436.994 157.006 438.51 157.006 438.51L156.529 437.471C155.419 434.795 154.228 432.149 153.219 429.433C150.939 423.289 149.578 416.885 148.056 410.531C147.097 406.528 146.447 402.45 145.405 398.472C144.489 394.976 141.63 381.763 136.052 375.703C136.405 376.677 136.677 377.689 137.123 378.62C138.682 381.862 139.4 385.33 140.136 388.817C141.358 394.599 142.153 400.443 142.645 406.314C143.05 411.156 143.827 415.911 144.978 420.613C145.702 423.577 146.605 426.497 147.419 429.439C147.49 429.699 147.487 429.981 147.564 430.63C145.547 427.19 143.864 424.026 142.862 420.533C141.333 415.206 139.635 409.922 138.286 404.548C136.937 399.171 136.012 393.689 134.747 388.291C132.544 378.88 129.017 370.032 123.749 361.849C121.107 357.741 118.926 353.308 116.859 348.871C113.661 340.794 114.075 329.49 114.347 328.701C115.059 334.269 117.46 339.219 119.474 344.308C122.116 350.991 126.598 356.423 131.158 361.8L131.161 361.797ZM184.14 82.2388C185.619 82.0717 186.609 82.6162 187.488 83.8815C189.944 87.4299 191.546 91.3929 193.133 95.3404C195.188 100.451 197.05 105.648 197.758 111.229C193.208 101.543 188.685 91.9126 184.14 82.2357V82.2388ZM206.356 116.046C206.557 118.144 205.752 124.009 205.752 124.009C205.752 124.009 205.483 122.1 205.468 121.89C205.075 116.82 203.797 111.978 202.179 107.158C200.453 102.02 198.665 96.9212 196.227 92.089C194.501 88.6674 192.502 85.3788 190.609 82.0067C192.496 81.7221 193.876 82.1676 195.048 84.1104C204.527 101.141 205.923 111.511 206.356 116.049V116.046ZM180.044 22.4787C180.802 22.8066 181.498 23.0943 182.185 23.4037C182.853 23.7038 183.472 24.01 183.197 24.9691C182.909 25.9745 182.343 26.4757 181.362 26.3148C180.886 26.2375 180.44 25.9683 179.989 25.7889C178.383 27.4038 178.371 27.5708 179.67 29.3187C182.241 32.7743 185.217 33.4797 188.706 31.4595C191.051 30.1045 192.595 26.5994 192.026 23.9729C191.212 20.8885 186.086 20.1275 186.086 20.1275C190.352 19.2458 198.495 21.0216 198.829 21.4361C199.163 21.8507 196.806 24.1121 195.834 25.2939C193.761 27.8214 192.035 30.482 190.009 33.0466C188.957 34.3769 187.46 34.8038 185.625 34.6305C182.519 34.3397 179.376 34.4851 176.248 34.4016C175.141 34.3738 172.966 34.6584 172.725 34.1046C172.242 33.3096 174.265 23.9234 180.041 22.4818L180.044 22.4787ZM67.89 116.724C73.9536 107.935 81.1525 100.321 90.452 94.9196C82.9313 102.187 75.4107 109.454 67.89 116.724ZM101.345 83.1266C95.835 87.037 90.3623 90.9969 84.9206 95.0001C82.7488 96.5995 80.7163 98.3876 78.5817 100.043C72.4408 104.81 66.9897 110.332 61.4923 115.789C59.6361 117.63 58.1574 119.851 56.4868 121.881C55.8186 122.694 54.4419 124.3 54.4419 124.3C54.4419 124.3 55.1287 122.636 55.5278 121.831C57.2571 118.363 59.6176 115.332 62.2348 112.507C65.907 108.55 69.5204 104.522 73.4307 100.81C76.1996 98.1804 79.3675 95.9591 82.4395 93.6667C85.2856 91.5445 88.2215 89.5367 91.1605 87.5413C94.9347 84.9736 99.0338 83.0029 103.207 81.1807C104.237 80.7322 105.268 80.2867 106.418 80.0608C104.723 81.0755 102.95 81.9882 101.345 83.1266ZM130.261 62.9808C129.977 63.386 129.599 63.7325 129.355 64.1595C128.349 65.9105 126.802 66.8695 124.965 67.6398C117.438 70.7953 109.824 73.7962 102.502 77.3786C96.7754 80.1815 91.4203 83.7516 85.9105 86.9937C84.8711 87.6062 83.8811 88.3023 82.854 88.9365C78.1609 91.8415 74.2165 95.6652 70.2474 99.424C65.8575 103.579 61.4645 107.764 57.4304 112.256C49.8695 120.671 43.8121 130.116 39.2026 140.467C39.0881 140.721 38.9458 140.962 38.556 141.151C38.7818 140.338 38.9551 139.502 39.2459 138.713C42.7015 129.364 47.6328 120.878 53.7644 113.005C57.9903 107.576 63.0299 102.997 67.8931 98.2175C72.679 93.5182 77.8454 89.2861 83.3335 85.4438C89.2176 81.323 95.2379 77.3848 101.667 74.1891C107.578 71.2501 124.16 65.1278 126.642 63.0272C128.98 60.9513 131.211 58.7579 133.497 56.6264C133.946 56.2088 134.456 55.8623 134.939 55.4818L135.629 54.9992C135.629 54.9992 134.524 57.8701 130.261 62.9808ZM110.1 203.742C110.892 202.393 111.684 201.041 112.559 199.745C114.36 197.078 116.909 193.236 117.243 189.842C121.361 192.274 123.047 201.747 122.289 206.947C121.738 210.721 120.16 214.084 118.27 217.348C118.759 211.996 119.486 206.681 118.412 201.357C117.967 208.8 116.745 216.042 113.376 222.867C113.562 221.048 113.732 219.229 113.939 217.416C114.159 215.51 114.505 213.611 114.626 211.699C114.746 209.79 114.651 207.866 114.514 205.935C113.45 213.778 111.511 221.404 109.463 229.026C107.656 224.714 107.189 220.244 106.907 215.696C106.638 211.294 107.931 207.43 110.094 203.742H110.1ZM91.0274 232.238C91.5379 228.977 92.9455 225.852 93.9819 222.675C94.8605 219.987 95.7917 217.32 96.7785 214.406C96.7785 214.406 98.1305 215.356 99.6463 217.716C101.162 220.076 105.336 229.5 104.692 237.565C104.497 240.024 103.888 242.471 103.244 244.866C102.653 247.056 101.772 249.172 100.986 251.31C100.776 251.879 100.454 252.405 100.185 252.953L99.2163 254.71L99.5257 252.835C100.844 243.836 100.748 234.883 98.8111 225.976C98.5543 236.269 97.2364 246.45 95.7483 256.746C94.9316 256.47 94.613 255.771 94.2974 255.121C90.7892 247.842 89.7962 240.139 91.0274 232.241V232.238ZM77.9629 256.334C78.8075 251.848 79.6088 247.372 78.8694 242.781L78.5848 241.72C79.6985 241.862 81.0721 242.57 81.7465 243.288C85.2547 247.035 88.5803 250.889 90.5355 255.765C92.9176 261.711 93.6199 267.784 93.0228 274.16C92.5835 278.853 91.7421 283.453 90.9284 288.075C90.7738 288.95 90.4953 289.801 90.2726 290.664L89.8302 292.341L89.8518 290.627C89.9601 284.251 89.6384 277.928 88.4566 271.651C87.2872 265.436 85.8858 259.301 83.5903 253.386C84.8154 264.786 86.554 276.133 86.7118 288.016C85.991 287.394 85.4867 287.039 85.0814 286.596C81.6784 282.887 79.4541 278.562 78.5817 273.606C77.9691 270.113 77.3071 266.602 77.0998 263.072C76.9699 260.848 77.5453 258.562 77.966 256.331L77.9629 256.334ZM74.4424 282.711C78.3435 285.195 81.5299 288.409 84.0822 292.248C86.0776 295.249 86.9995 298.72 88.1256 302.077C89.957 307.54 89.7838 313.294 90.288 318.947L90.3901 321.663C89.3816 318.383 88.0513 313.916 87.2779 311.064C85.5826 304.827 82.8014 299.101 79.3365 293.681C79.1849 293.442 78.6188 292.889 78.2166 292.703C80.1687 298.479 82.1053 304.026 83.9182 309.61C85.7373 315.209 86.8541 320.982 88.0761 326.888C86.5726 326.879 85.7249 325.981 84.8742 325.196C81.3195 321.923 78.5662 318.086 76.7038 313.601C74.4733 308.224 73.2637 302.674 73.0564 296.833C72.8708 291.608 72.2706 286.398 71.8406 281.031C72.6944 281.581 73.5669 282.148 74.4455 282.707L74.4424 282.711ZM127.068 445.833C125.593 444.555 124.114 443.28 122.645 441.997C117.503 437.492 112.971 432.394 108.435 427.311C104.556 422.961 101.289 418.166 98.2295 413.185C94.0716 406.42 90.3561 399.419 86.5107 392.489C84.6205 389.083 83.1201 385.463 81.3536 381.986C80.1656 379.644 78.8508 377.364 77.5453 375.081C75.2869 371.127 72.9729 367.204 70.7207 363.245C69.5606 361.206 68.5304 359.093 67.3517 357.063C66.3896 355.411 65.2944 353.84 64.2581 352.231C63.9889 351.866 63.6857 351.634 63.3702 351.433C63.3702 351.433 64.1467 353.317 64.357 353.728C67.1692 359.238 70.0803 364.699 72.7842 370.258C74.2382 373.252 75.324 376.423 76.611 379.502C78.7178 384.538 80.7039 389.633 83.0149 394.574C85.332 399.521 87.7822 404.43 90.5448 409.139C94.0592 415.131 97.4839 421.21 101.994 426.565C105.936 431.249 110.211 435.614 114.644 439.825C114.923 440.091 115.965 441.096 115.965 441.096C115.965 441.096 113.707 439.989 112.999 439.454C107.232 435.092 102.208 429.972 97.4963 424.505C90.6748 416.595 84.7411 408.072 79.8903 398.84C76.5151 392.418 73.4957 385.807 70.3897 379.245C67.0083 372.102 63.5898 364.974 60.4157 357.738C56.9075 349.735 52.2856 342.369 47.3915 335.213C44.5329 331.03 39.5862 324.277 30.6703 319.141C33.7051 319.822 36.3471 320.206 38.8499 321.016C49.492 324.459 57.6067 331.256 63.9858 340.296C66.3679 343.668 68.9016 346.938 71.1755 350.381C78.1702 360.968 84.5741 371.901 90.0406 383.363C93.1342 389.85 96.0453 396.433 99.2906 402.843C102.7 409.572 106.341 416.186 110.004 422.782C114.248 430.423 119.786 437.112 125.701 443.5C126.184 444.023 128.451 446.872 128.451 446.872L127.062 445.833H127.068Z" fill="#F0F0EC" fill-opacity="0.4"/>
<path d="M179.806 488.064C182.334 489.917 185.876 494.171 188.128 496.002C193.103 500.04 198.074 504.089 203.234 507.882C209.081 512.182 215.08 516.278 221.103 520.334C226.635 524.059 232.893 526.289 239.077 528.647L240.491 529.12L239.869 528.609C239.393 528.195 239.037 527.861 238.657 527.558C236.377 525.735 234.093 523.919 231.807 522.103C227.408 518.605 223.083 515.004 218.591 511.631C213.982 508.17 209.143 505.014 204.515 501.577C195.751 495.068 187.803 487.591 179.738 480.259C178.853 479.454 177.968 478.65 177.084 477.846C177.693 479.956 178.321 482.062 178.906 484.181C179.141 485.032 179.877 488.033 179.806 488.07V488.064Z" fill="#F0F0EC" fill-opacity="0.4"/>
<path d="M149.482 317.668C152.529 305.696 157.315 294.41 163.351 283.653C168.112 275.168 173.003 266.753 176.787 257.763C178.009 254.858 179.026 251.869 180.14 248.921L180.604 247.39C180.604 247.39 179.209 248.881 178.256 249.905C176.706 251.56 175.227 253.286 173.613 254.873C169.297 259.108 164.895 263.263 160.582 267.505C159.171 268.894 157.918 270.444 156.601 271.929C152.189 276.909 148.777 282.58 145.448 288.297C141.228 295.539 138.125 303.224 136.814 311.546C135.455 320.168 134.942 328.827 136.155 337.517C136.442 339.587 136.86 341.638 137.216 343.698C136.396 323.333 143.022 305.114 152.421 287.641C152.532 288.136 152.415 288.566 152.245 288.978C150.942 292.115 149.497 295.199 148.344 298.389C144.347 309.436 141.349 320.697 140.628 332.518C140.034 342.272 140.449 347.389 143.496 356.627C144.393 359.887 146.611 362.532 146.611 362.532C146.611 362.532 145.398 356.404 144.872 353.465C143.465 345.601 144.084 341.319 145.869 333.418C147.057 328.168 148.152 322.893 149.479 317.674L149.482 317.668Z" fill="#F0F0EC" fill-opacity="0.4"/>
<path d="M367.458 192.784C360.463 206.368 339.25 218.508 330.962 223.223C329.759 223.752 330 225.292 330 225.292C330 225.292 333.23 224.231 337.728 222.585C338.155 228.89 337.27 234.771 336.252 239.093C334.637 245.908 332.06 252.445 328.62 258.478C317.294 276.932 277.686 283.679 267.82 285.089C267.845 277.628 267.845 270.348 267.83 263.353C269.525 260.603 271.363 257.949 273.392 255.412C274.11 254.515 274.67 253.491 275.304 252.526C275.304 252.526 275.632 251.978 275.589 251.916C275.536 251.842 275.019 252.124 275.019 252.124C274.348 252.424 273.683 252.739 273.005 253.024C270.679 254.011 268.38 255.004 265.816 255.363C260.093 256.167 254.366 256.993 248.702 258.116C243.306 259.186 238.725 261.974 234.613 265.624C231.074 268.767 228.355 272.594 225.75 276.437C221.713 282.392 218.078 288.626 214.291 294.748C209.898 301.851 206.353 309.365 203.68 317.273C201.65 323.274 199.76 329.319 197.799 335.346C195.098 343.652 192.994 352.095 191.961 360.782C191.772 362.353 191.605 363.928 191.491 365.509C190.993 372.371 190.238 379.229 190.117 386.097C189.997 392.885 190.541 399.681 190.767 406.475C191.082 415.92 192.425 425.257 193.805 434.581C194.987 442.566 196.014 450.612 198.65 458.294C200.453 463.553 202.427 468.753 204.401 473.954H204.376C204.503 474.291 204.657 474.65 204.793 474.99C205.019 475.587 205.245 476.188 205.471 476.788C208.042 483.575 211.615 489.824 215.597 495.835C216.302 496.94 217.001 498.01 217.691 499.003C219.764 501.998 222.025 504.863 224.222 507.771C224.71 508.417 225.45 509.506 226.731 510.174C226.724 510.162 226.721 510.147 226.715 510.134C226.737 510.147 226.755 510.162 226.777 510.174C222.687 499.43 219.73 487.857 219.937 476.475C220.147 464.849 222.61 448.923 225.57 443.843C224.924 446.646 224.194 449.347 223.708 452.091C222.025 461.589 222.13 471.185 222.731 480.744C223.219 488.519 225.072 496.058 228.045 503.306C230.381 509.002 233.308 514.311 237.469 518.889C239.65 521.29 241.794 523.725 243.972 526.128L245.271 527.288L245.218 527.199L245.317 527.288L244.485 525.878C243.266 523.855 242.168 521.791 241.153 519.7C235.928 508.606 233.868 496.875 231.764 484.612C230.304 476.092 230.817 466.873 231.631 458.247C232.243 451.748 234.035 442.012 237.914 430.983C270.447 434.76 296.369 452.258 304.208 458.083C304.276 458.133 305.95 459.321 307.936 459.841C308.354 459.967 308.827 460.029 309.378 460.029C311.101 460.029 313.09 459.411 313.211 459.367C325.168 456.419 356.086 446.386 384.937 416.867C399.848 399.545 403.777 377.107 403.889 358.592C405.835 354.325 406.512 349.741 406.218 344.998C406.067 342.57 405.584 340.16 405.185 337.75C404.381 332.862 402.828 328.224 400.414 323.89C399.997 323.138 399.511 322.099 398.456 321.65C398.456 321.65 398.53 322.495 398.555 322.718C399.301 329.326 400.105 335.927 400.783 342.542C401.111 345.734 401.064 348.942 400.136 352.095C400.028 342.502 398.261 333.162 396.198 323.834C395.523 333.023 395.502 342.217 395.523 351.408C395.514 352.002 395.421 352.537 395.09 352.896L394.939 351.436C394.28 344.624 393.618 337.808 392.925 330.668C391.966 332.855 391.155 334.792 390.277 336.698C386.499 344.918 385.918 353.206 390.227 361.36C392.179 365.051 394.682 368.448 394.66 373.252C394.716 373.194 394.756 373.156 394.806 373.104C394.648 373.358 394.487 373.608 394.329 373.862C394.131 374.177 393.81 374.416 393.178 375.071C393.2 370.267 390.694 366.87 388.745 363.179C384.436 355.025 383.152 345.001 386.929 336.784C392.563 324.268 397.463 317.285 397.463 317.285L397.513 317.205C397.225 316.487 396.891 315.819 396.581 315.123C397.11 314.256 397.636 313.387 398.172 312.524C402.565 305.421 406.11 297.906 408.783 289.999C410.812 283.997 412.702 277.952 414.664 271.926C417.365 263.62 419.468 255.177 420.502 246.49C420.69 244.918 420.857 243.344 420.972 241.763C421.47 234.901 422.225 228.043 422.345 221.175C422.466 214.387 421.922 207.59 421.696 200.797C421.38 191.352 420.038 182.015 418.658 172.691C417.476 164.706 416.449 156.66 413.813 148.978C412.009 143.719 410.036 138.518 408.062 133.318H408.09C407.963 132.981 407.805 132.622 407.669 132.279C407.443 131.681 407.217 131.081 406.992 130.484C404.421 123.697 400.851 117.448 396.866 111.437C396.161 110.332 395.461 109.262 394.772 108.269C392.699 105.274 390.437 102.409 388.241 99.5013C387.752 98.8547 387.013 97.7657 385.732 97.0975C385.738 97.1099 385.741 97.1253 385.747 97.1377C385.726 97.1253 385.707 97.1099 385.686 97.0975C389.775 107.842 392.733 119.415 392.526 130.797C392.315 142.423 389.853 158.349 386.892 163.428C387.539 160.626 388.269 157.925 388.754 155.181C390.437 145.683 390.332 136.087 389.732 126.527C389.243 118.753 387.39 111.214 384.417 103.965C382.081 98.27 379.155 92.9613 374.994 88.3827C372.813 85.982 370.669 83.5473 368.491 81.1435L367.192 79.9834L367.244 80.0731L367.145 79.9834L367.977 81.391C369.196 83.4143 370.295 85.4777 371.309 87.569C376.535 98.6629 378.595 110.394 380.699 122.657C382.162 131.177 381.645 140.396 380.832 149.021C379.925 158.63 376.463 175.29 367.464 192.766L367.458 192.784ZM251.826 264.674C244.194 267.824 237.679 272.783 230.935 277.374C230.718 277.522 230.409 277.529 229.997 277.643C233.546 271.895 245.06 265.046 251.826 264.678V264.674ZM209.929 315.775C211.906 309.143 214.619 302.813 218.136 296.861C219.986 293.727 222.174 290.794 224.144 287.728C225.413 285.755 227.052 284.313 229.094 283.437C229.258 286.045 229.422 288.65 229.558 291.258C235.634 288.743 244.519 289.052 246.972 288.483C249.463 287.905 254.973 285.634 254.973 285.634C254.973 285.634 255.205 286.776 254.057 287.632C254.208 287.564 250.787 290.039 247.214 290.584C243.64 291.128 237.066 291.738 231.758 294.213C228.738 295.571 225.889 297.353 223.102 299.166C219.436 301.551 216.927 305 215.055 309.016C218.458 305.783 222.526 303.654 226.758 301.869C230.922 300.112 234.947 297.736 240.213 297.996C229.515 303.763 219.055 308.96 209.935 316.806C209.929 316.215 209.873 315.98 209.935 315.782L209.929 315.775ZM199.76 355.588C200.085 353.716 200.444 351.851 200.834 349.991C202.028 344.253 203.206 338.508 204.466 332.784C204.942 330.625 205.579 328.493 206.232 326.38C206.43 325.74 206.798 324.988 207.324 324.648C208.713 323.745 210.18 322.925 211.705 322.275C217.908 319.639 224.157 317.103 230.366 314.479C230.409 317.263 230.446 320.045 230.458 322.813C231.207 322.56 231.953 322.294 232.704 321.991C233.119 321.824 235.879 320.849 236.624 320.568C236.698 321.409 236.479 321.725 236.012 322.591C235.266 322.875 234.845 323.024 234.434 323.191C231.714 324.289 229.035 325.493 226.273 326.467C221.156 328.28 216.311 330.467 212.268 334.26C208.187 338.09 204.156 341.87 203.188 347.755C203.107 348.243 203.046 348.732 202.971 349.246C205.706 347.219 208.138 344.998 210.947 343.457C213.768 341.911 216.351 339.723 220.144 339.027C213.143 345.187 206.272 351.328 199.587 357.209C199.562 356.794 199.692 356.018 199.766 355.585L199.76 355.588ZM360.624 342.619C368.256 339.47 374.771 334.511 381.515 329.92C381.732 329.771 382.041 329.765 382.453 329.65C378.904 335.398 367.39 342.248 360.624 342.616V342.619ZM402.521 291.518C400.544 298.151 397.831 304.481 394.314 310.433C392.464 313.567 390.277 316.499 388.303 319.565C386.682 322.086 384.482 323.773 381.568 324.469C377.419 325.459 373.277 326.486 369.1 327.346C363.182 328.562 357.849 331.064 352.812 334.313C350.458 335.832 348.271 337.533 346.913 340.023C344.633 344.206 342.034 348.166 339.061 351.885C338.343 352.782 337.783 353.806 337.149 354.771C337.149 354.771 336.821 355.319 336.865 355.38C336.917 355.455 337.434 355.173 337.434 355.173C338.105 354.873 338.77 354.557 339.448 354.273C341.774 353.286 344.073 352.293 346.637 351.934C352.172 351.158 357.713 350.353 363.195 349.283C363.297 350.675 363.39 352.178 363.461 353.84C366.468 351.786 369.716 349.728 372.132 348.212C376.272 345.614 382.051 341.954 382.051 341.954C381.998 343.229 381.834 345.669 381.413 348.676C379.801 351.13 378.583 353.697 377.172 356.154C375.755 358.623 374.199 361.02 372.569 363.353C370.892 365.753 369.128 368.105 367.263 370.36C365.456 372.544 363.699 374.805 361.289 376.433C368.689 367.78 373.268 357.496 378.32 347.442C374.1 351.492 369.224 354.548 364.312 357.568C362.972 358.39 361.778 359.455 360.556 360.457C356.178 364.049 350.941 369.413 348.259 374.295C347.538 375.607 346.783 376.946 346.344 378.363C344.744 383.508 343.782 388.776 343.702 394.203C348.843 391.301 356.219 387.888 361.181 384.94C361.236 384.906 361.289 384.869 361.342 384.838C358.817 397.977 353.725 411.719 343.9 422.476C343.364 423.063 342.248 424.285 341.706 424.418C341.685 424.425 341.626 424.434 341.508 424.434C340.818 424.434 339.683 424.059 338.73 423.741C328.026 420.192 317.477 415.83 307.37 410.778C297.263 405.726 274.023 397.776 268.733 395.997L268.696 391.836C273.794 388.47 278.491 385.782 281.488 384.077C282.692 383.548 282.45 382.007 282.45 382.007C282.45 382.007 259.304 389.602 250.675 395.728C242.047 401.853 231.888 415.846 228.695 421.424C224.881 428.091 221.091 434.798 218.631 442.108C217.273 446.145 216.228 450.3 215.247 454.448C213.802 460.552 212.914 466.736 213.236 473.044C213.335 474.993 213.332 476.949 213.375 478.904L213.521 480.277C213.487 480.231 213.437 480.147 213.385 480.051C212.951 479.117 211.655 476.048 211.086 474.699C210.876 474.127 210.665 473.555 210.455 472.979C209.338 468.784 209.208 464.469 209.069 460.172C208.874 454.114 208.88 448.06 210.495 442.089C211.234 439.358 212.255 436.672 213.19 433.975C214.204 431.054 215.241 428.137 216.271 425.22C218.415 416.236 220.234 407.066 221.703 397.779C217.047 404.814 215.34 409.751 215.34 409.751C211.234 418.212 207.101 433.012 205.641 443.806C204.416 432.32 212.265 407.14 215.637 399.92C217.026 396.95 219.832 392.767 223.04 388.575C223.532 384.872 223.977 381.16 224.361 377.438C224.379 377.259 224.392 377.076 224.41 376.897C219.646 381.33 214.495 386.991 210.034 393.989C205.149 401.649 200.592 418.432 199.556 433.975C198.551 424.929 196.373 404.681 196.233 398.048C196.224 397.584 196.23 397.039 196.453 396.665C197.82 394.36 199.027 391.91 200.713 389.856C204.122 385.701 208.75 382.985 213.162 380.037C215.12 378.728 217.273 377.713 218.566 375.523C220.178 372.798 222.09 370.252 223.733 367.545C224.503 366.276 226.842 360.627 227.13 359.192C227.968 355 228.584 349.917 228.565 348.884C227.622 349.719 227.102 350.174 226.591 350.638C223.875 353.082 221.029 355.337 217.793 357.07C215.423 358.338 212.964 359.476 210.758 360.986C205.143 364.692 202.81 367.783 202.074 369.314C201.338 370.846 199.921 375.328 199.933 379.127C201.598 377.305 202.931 375.653 204.466 374.221C206.025 372.764 207.785 371.523 209.453 370.177C212.441 367.764 213.18 367.362 214.644 367.35C208.054 374.332 201.366 381.989 196.261 390.435C196.051 389.998 196.131 389.101 196.131 389.101C196.06 381.717 196.493 374.375 198.062 367.139C198.161 366.688 198.346 366.217 198.619 365.849C200.521 363.285 202.705 361.032 205.613 359.56C207.587 358.561 209.542 357.509 211.423 356.346C217.422 352.624 222.198 347.591 226.468 342.044C227.94 340.129 229.181 338.084 230.316 335.977C230.038 349.923 229.243 363.941 227.829 377.791C226.146 394.234 223.377 410.5 219.624 426.194C221.258 423.425 223.052 420.743 224.856 417.977C228.048 412.399 240.411 400.204 249.039 394.079C253.785 390.71 261.964 387.412 268.646 385.067L267.991 312.057C276.217 302.114 297.486 296.756 313.579 296.756C318.853 296.756 323.698 297.328 327.584 298.411C344.073 303.002 354.282 317.511 357.716 325.356C358.047 326.114 358.322 326.894 358.622 327.664C361.032 326.458 363.662 325.437 366.536 324.694C370.712 323.837 374.855 322.807 379.003 321.817C381.917 321.121 384.114 319.435 385.738 316.914C391.189 309.05 391.885 306.17 391.885 306.17C394.233 304.001 396 301.306 397.407 298.284C394.004 301.517 389.936 303.645 385.704 305.43C381.54 307.187 377.515 309.563 372.25 309.304C382.948 303.537 393.407 298.34 402.527 290.494C402.534 291.085 402.589 291.32 402.527 291.518H402.521ZM416.214 209.249C416.223 209.713 416.217 210.257 415.997 210.631C414.63 212.936 413.423 215.386 411.737 217.441C408.328 221.595 403.7 224.312 399.288 227.26C397.333 228.568 395.177 229.583 393.884 231.773C392.272 234.499 390.36 237.045 388.717 239.752C387.947 241.02 385.608 246.669 385.321 248.105C384.482 252.297 383.867 257.38 383.885 258.413C384.829 257.578 385.348 257.123 385.859 256.659C388.575 254.215 391.421 251.96 394.657 250.227C397.027 248.959 399.486 247.82 401.692 246.311C407.304 242.604 409.64 239.514 410.376 237.982C411.112 236.451 412.529 231.968 412.517 228.169C410.852 229.992 409.519 231.64 407.985 233.076C406.425 234.533 404.665 235.774 402.998 237.119C400.009 239.535 399.27 239.935 397.807 239.947C404.396 232.965 411.084 225.308 416.189 216.862C416.399 217.298 416.319 218.195 416.319 218.195C416.39 225.58 415.957 232.921 414.388 240.157C414.293 240.609 414.104 241.079 413.832 241.447C411.929 244.012 409.745 246.264 406.837 247.737C404.863 248.736 402.908 249.788 401.027 250.951C395.028 254.673 390.252 259.706 385.983 265.253C382.725 269.485 380.584 274.355 378.273 279.113C377.472 280.761 377.101 282.618 376.432 284.703C377.178 284.421 377.599 284.27 378.013 284.103C380.733 283.004 383.412 281.801 386.174 280.826C391.291 279.014 396.136 276.826 400.179 273.034C404.26 269.207 408.291 265.423 409.259 259.539C409.34 259.05 409.402 258.561 409.476 258.048C406.741 260.074 404.309 262.295 401.5 263.836C398.679 265.383 396.096 267.57 392.303 268.266C399.304 262.107 406.175 255.966 412.86 250.085C412.885 250.499 412.755 251.276 412.681 251.709C412.356 253.581 411.997 255.446 411.607 257.305C410.413 263.044 409.234 268.789 407.975 274.512C407.499 276.672 406.862 278.803 406.209 280.916C406.011 281.557 405.643 282.308 405.117 282.649C403.728 283.552 402.261 284.372 400.736 285.021C394.481 287.679 388.179 290.234 381.921 292.882C378.084 294.503 374.818 296.951 371.866 299.893C367.971 303.775 365.091 308.403 361.997 312.877C361.314 313.864 360.686 314.891 360.076 315.927C358.69 316.314 357.837 316.626 357.837 316.626C357.837 316.626 363.424 301.975 369.107 296.926C371.965 294.073 375.133 291.704 378.818 290.083C377.812 289.117 376.859 288.248 375.99 287.487C368.064 280.563 359.071 276.167 349.233 274.407C357.905 267.335 365.339 258.821 371.316 249.12C386.171 226.199 376.757 202.9 375.631 200.305C375.365 199.705 375.071 199.12 374.787 198.529C378.808 193.564 382.153 188.663 383.749 185.873C387.563 179.206 391.353 172.502 393.813 165.189C395.171 161.152 396.216 156.997 397.197 152.848C398.642 146.744 399.53 140.56 399.208 134.252C399.109 132.303 399.112 130.348 399.069 128.393L398.923 127.019C398.957 127.066 399.007 127.149 399.059 127.245C399.493 128.179 400.789 131.245 401.355 132.594C401.565 133.169 401.776 133.742 401.986 134.314C403.103 138.509 403.233 142.825 403.372 147.122C403.567 153.179 403.561 159.234 401.946 165.204C401.206 167.936 400.186 170.621 399.251 173.319C397.664 177.898 396.052 182.473 394.422 187.045C394.178 187.726 393.803 188.382 393.441 189.032C391.245 192.939 389.064 196.852 386.821 200.741C385.324 203.34 383.576 205.812 381.673 208.203C382.36 211.377 382.923 215.204 383.037 219.473C393.639 207.6 397.104 197.548 397.104 197.548C401.21 189.087 405.343 174.287 406.803 163.493C408.028 174.98 400.179 200.159 396.807 207.38C394.496 212.324 388.275 220.621 382.784 226.734C382.471 229.849 381.871 233.113 380.903 236.454C387.093 231.687 395.57 224.046 402.41 213.314C407.295 205.654 411.852 188.871 412.888 173.328C413.893 182.374 416.071 202.622 416.211 209.255L416.214 209.249Z" fill="#F0F0EC" fill-opacity="0.4"/>
<path d="M346.22 167.794C340.166 164.063 333.622 161.121 326.773 159.055C321.313 157.409 315.896 156.239 310.671 155.58L310.411 155.546C309.739 155.46 309.047 155.37 308.335 155.37C307.623 155.37 306.983 155.46 306.377 155.645C305.059 156.045 304.276 156.673 303.286 157.471L302.705 157.932C292.059 166.343 267.124 186.044 226.366 186.047H226.359C224.048 186.047 221.688 185.982 219.368 185.852C218.87 185.818 218.415 185.799 218.003 185.799C216.645 185.799 214.737 185.966 213.867 187.408C213.013 188.828 213.725 190.533 214.362 191.733C220.098 201.852 224.658 234.766 227.102 258.779C228.698 249.457 232.407 234.472 238.932 228.142C247.678 219.124 259.61 216.179 267.449 211.975C267.378 206.279 267.316 202.316 267.288 200.63C270.852 198.604 286.426 190.338 302.862 190.338C311.364 190.338 318.835 192.543 324.966 196.816C331.816 202.437 335.29 209.33 336.824 216.163C346.6 210.047 357.475 201.923 361.419 194.517C363.151 191.263 364.689 188.036 366.05 184.874C365.113 183.745 364.148 182.638 363.133 181.573C357.97 176.166 352.28 171.528 346.223 167.794H346.22Z" fill="#F0F0EC" fill-opacity="0.4"/>
<path d="M251.269 222.353C244.995 226.081 240.052 231.164 236.878 237.778C234.233 243.288 232.522 249.141 231.219 255.103C230.956 256.306 231.006 257.578 230.91 258.818C232.587 256.303 233.827 253.664 235.275 251.14C236.692 248.671 238.248 246.273 239.879 243.941C241.555 241.54 243.319 239.189 245.184 236.934C246.991 234.749 248.748 232.488 251.158 230.861C243.758 239.514 239.179 249.797 234.127 259.851C233.632 260.776 233.24 261.67 232.918 262.493C236.896 259.069 241.314 256.455 246.484 255.427C252.148 254.304 258.345 254.425 264.068 253.624C265.271 253.454 266.54 253.293 267.793 253.07C267.746 241.735 267.66 231.541 267.573 223.145C268.26 219.847 268.693 216.503 268.742 213.091C263.601 215.993 256.225 219.405 251.263 222.353H251.269Z" fill="#F0F0EC" fill-opacity="0.4"/>
<path d="M216.258 283.45C216.933 274.262 216.955 265.068 216.933 255.877C216.945 255.283 217.035 254.747 217.366 254.388L217.518 255.849C218.177 262.661 218.839 269.476 219.532 276.616C220.491 274.429 221.301 272.493 222.18 270.587C225.957 262.367 226.539 254.079 222.229 245.924C220.277 242.233 217.774 238.837 217.796 234.032C217.165 234.688 216.843 234.926 216.645 235.242C214.3 238.998 211.878 242.71 209.669 246.543C206.869 251.4 205.898 256.74 206.244 262.29C206.396 264.718 206.879 267.128 207.278 269.538C208.082 274.426 209.635 279.063 212.048 283.398C212.466 284.146 212.951 285.189 214.006 285.637C214.006 285.637 213.929 284.793 213.904 284.57C213.159 277.962 212.354 271.36 211.677 264.746C211.349 261.553 211.395 258.345 212.323 255.193C212.432 264.786 214.198 274.126 216.262 283.453L216.258 283.45Z" fill="#F0F0EC" fill-opacity="0.4"/>
<path d="M189.604 355.303C186.692 349.58 183.732 343.878 180.88 338.127C179.503 335.349 177.455 325.211 177.229 322.047C180.406 333.456 185.703 343.844 190.724 351.582C188.224 343.04 185.767 336.633 182.634 328.324L182.281 327.389C183.534 327.872 188.96 339.98 192.004 346.205C192.131 343.9 192.212 341.874 192.357 339.854C192.994 331.139 190.711 323.445 184.054 317.527C181.04 314.848 177.625 312.623 176.019 308.271C174.89 310.083 173.603 318.124 172.901 322.34C172.013 327.683 172.941 332.84 175.132 337.744C176.091 339.888 177.343 341.905 178.519 343.95C180.901 348.098 183.874 351.77 187.525 354.873C188.156 355.412 189.022 356.228 190.13 356.278C190.13 356.278 189.7 355.498 189.604 355.306V355.303Z" fill="#F0F0EC" fill-opacity="0.4"/>
<path d="M197.613 268.183C197.437 267.713 197.332 267.215 197.05 266.222C195.509 269.829 194.164 272.932 192.858 276.05C190.764 281.062 189.659 286.306 189.297 291.713C189.038 295.602 189.344 299.457 190.297 303.228C191.225 306.9 191.989 310.637 194.368 313.783C195.414 315.163 196.134 316.784 197.075 318.248C197.65 319.142 198.371 319.943 199.027 320.788L199.466 321.276L199.534 320.602C199.547 319.847 199.627 319.086 199.556 318.34C199.24 315.03 198.891 311.723 198.532 308.416C197.91 302.674 197.189 296.945 196.676 291.194C196.453 288.706 196.651 286.182 196.654 283.676C196.716 283.265 196.837 282.915 197.084 282.698L197.174 283.753C198.69 293.706 200.203 303.658 201.78 314.016C203.633 307.503 202.421 301.251 203.169 295.048C203.859 299.086 204.552 303.123 205.242 307.16C206.059 305.325 206.848 303.457 207.018 301.533C207.265 298.705 207.089 295.837 207.052 292.985C206.829 288.892 203.859 281.749 202.062 277.266C200.797 274.11 198.795 271.363 197.607 268.18L197.613 268.183Z" fill="#F0F0EC" fill-opacity="0.4"/>
<path d="M172.697 381.543C174.955 384.584 177.084 387.749 180.484 389.754C181.975 390.632 183.259 391.858 184.688 392.851C185.56 393.457 186.532 393.924 187.46 394.456L188.122 394.778L187.859 394.094C181.433 385.12 176.199 376.197 171.088 362.848L171.914 364.03C177.105 372.655 181.86 379.724 187.265 388.702C186.467 380.281 180.898 372.315 178.887 366.388C181.065 369.855 185.842 376.021 188.02 379.489C188.075 377.481 188.094 375.452 187.519 373.611C186.671 370.901 186.309 365.45 173.077 353.809C170.708 351.374 168.425 348.853 166.11 346.359C165.77 345.991 165.482 345.57 164.845 344.76C164.796 348.683 164.731 352.064 164.715 355.445C164.687 360.878 165.665 366.146 167.388 371.285C168.629 374.979 170.38 378.428 172.697 381.549V381.543Z" fill="#F0F0EC" fill-opacity="0.4"/>
<path d="M333.01 584.243C332.199 584.017 331.457 583.541 330.68 583.188C321.647 579.067 313.235 573.87 305.152 568.156C300.273 564.71 291.509 558.47 288.749 556.221C289.581 557.427 291.688 562.587 292.734 563.707C293.779 564.827 296.721 566.974 297.897 568.004C299.072 569.035 305.346 573.084 309.003 575.794C310.074 576.589 311.234 577.264 312.354 577.994C306.414 576.051 299.858 572.753 294.769 569.084C295.778 571.052 297.755 576.558 297.717 577.749C297.717 577.749 325.415 588.497 336.682 592.249C338.47 592.846 340.367 593.122 342.396 593.589C342.272 592.005 341.666 590.922 340.8 589.972C338.591 587.541 336.348 585.165 333.01 584.243Z" fill="#F0F0EC" fill-opacity="0.4"/>
<path d="M81.564 258.175C80.3854 262.645 82.3065 277.198 84.6948 281.458C83.6523 273.519 83.4852 265.847 81.564 258.175Z" fill="#F0F0EC" fill-opacity="0.4"/>
<path d="M78.0959 302.374C79.3118 308.602 81.1618 314.616 84.1657 320.231C83.6583 313.759 81.5485 307.837 78.0959 302.374Z" fill="#F0F0EC" fill-opacity="0.4"/>
<path d="M96.4414 239.594C96.9147 235.77 96.7848 233.001 95.934 231.612C95.3493 236.98 94.8791 242.171 95.1946 247.421C96.2527 244.912 96.1166 242.214 96.4445 239.594H96.4414Z" fill="#F0F0EC" fill-opacity="0.4"/>
<path d="M432.644 119.331C430.117 117.478 426.574 113.224 424.322 111.393C419.348 107.356 414.376 103.306 409.216 99.5133C403.369 95.2131 397.37 91.1171 391.347 87.0614C385.815 83.3366 379.557 81.1061 373.373 78.7487L371.959 78.2754L372.581 78.7858C373.057 79.2004 373.413 79.5345 373.794 79.8377C376.074 81.6598 378.357 83.4758 380.643 85.2918C385.042 88.7907 389.367 92.3917 393.859 95.7638C398.469 99.2256 403.307 102.381 407.935 105.818C416.699 112.327 424.647 119.805 432.712 127.137C433.597 127.941 434.482 128.745 435.367 129.55C434.757 127.44 434.129 125.333 433.544 123.214C433.309 122.363 432.573 119.362 432.644 119.325V119.331Z" fill="#F0F0EC" fill-opacity="0.4"/>
<path d="M611.234 255.446C610.467 251.397 606.817 232.615 584.889 198.118C579.379 189.375 573.572 180.837 566.339 173.378C566.179 173.211 565.167 172.196 565.167 172.196C565.167 172.196 565.962 172.341 566.649 172.908C570.602 176.388 574.64 179.779 578.46 183.401C580.774 185.598 582.76 188.144 584.867 190.554C585.347 191.104 585.783 191.525 586.6 191.606C589.879 191.924 593.044 192.744 596.035 194.152C598.86 195.482 607.005 197.663 609.029 195.853C611.052 194.043 609.05 185.879 608.5 183.831C602.387 157.73 583.252 145.526 570.544 144.495C565.114 144.316 556.409 151.141 551.675 153.913C550.491 154.605 549.426 154.674 548.291 153.984C545.621 152.36 528.498 151.608 521.726 150.769C514.335 149.854 506.895 149.173 499.683 147.162C485.165 142.877 480.559 137 476.357 132.514C473.972 129.968 471.658 127.354 469.329 124.755C461.857 116.433 454.566 107.975 448.685 98.4C447.104 95.8292 446.04 93.0696 445.031 90.2606C443.555 86.1461 443.261 81.8026 442.544 77.5426C442.2 75.2316 442.439 73.7158 442.439 73.7158C442.439 73.7158 443.255 75.4204 443.456 75.9927C445.545 81.9944 448.511 87.5908 451.475 93.181C452.771 95.625 454.349 97.9298 455.899 100.231C457.526 102.651 459.098 105.138 460.991 107.338C467.732 115.161 474.724 122.753 482.291 129.804C485.026 132.353 487.847 134.506 491.476 135.793C496.516 137.575 501.555 139.283 506.762 140.474C507.365 140.613 508.974 141.015 509.766 141.145C509.19 139.31 507.52 137.491 506.279 136.226C502.687 132.557 499.436 128.591 496.503 124.374C490.214 115.328 486.375 105.144 482.805 94.833C481.075 89.8368 480.008 84.6859 479.259 79.47C479.03 77.8736 478.99 76.1969 479.188 74.6005C479.584 71.3986 479.624 68.2183 479.173 65.035C478.857 62.8168 478.124 60.7224 476.732 58.9559C473.36 54.6743 468.697 52.6789 463.454 52.1375C457.724 51.5466 451.948 51.3827 446.207 50.8815C437.826 50.1483 429.612 48.4375 421.498 46.2534C416.108 44.8025 411.053 42.4977 406.07 40.0475C404.872 39.4597 403.709 38.6709 402.753 37.7459C401.763 36.7868 400.736 35.967 399.474 35.4473C398.215 34.9275 397.336 34.0459 396.912 32.7558C396.182 30.5407 395.307 28.3535 394.806 26.0859C394.091 22.8345 393.704 19.5119 393.073 16.2419C392.894 15.3014 392.597 14.1784 391.95 13.569C389.822 11.5581 387.418 9.8937 384.488 9.22547C380.825 8.56653 379.517 11.3694 378.852 13.4947C377.924 16.4584 377.487 19.4469 377.62 22.5344C377.636 22.887 377.589 23.2428 377.562 23.8585C374.768 19.8274 374.845 14.3053 377.608 9.00583C378.125 8.10867 379.05 6.97948 379 6.54637C378.951 6.11326 377.661 4.46434 377.141 3.87655C376.16 2.76902 375.012 1.78833 373.837 0.878799C372.309 -0.30607 371.17 -0.231822 369.521 0.736491C367.195 2.10389 365.793 3.93533 365.218 6.70724C364.46 10.3547 363.73 13.9433 364.485 17.6495C365.137 20.8452 365.849 24.0286 366.591 27.2027C367.043 29.1331 367.606 31.0357 368.126 32.9507C369.094 36.4991 371.13 39.5371 372.853 42.7205C373.698 44.2797 374.332 46.1266 375.594 47.2434C376.909 48.4097 378.864 48.8521 380.544 49.6069C380.931 49.7802 381.327 49.9441 381.726 50.0864C387.959 52.2737 394.19 54.4701 400.43 56.6388C406.339 58.693 412.235 60.7967 418.469 61.7093C418.865 61.7681 420.768 62.0341 420.768 62.0341C420.768 62.0341 417.903 63.4077 415.849 63.1664C410.747 62.5817 405.794 61.2824 400.829 60.0294C394.772 58.5012 388.983 56.085 382.808 54.8909C379.634 54.2783 376.612 52.8367 373.552 51.6859C371.764 51.0145 369.964 50.3092 368.305 49.3811C365.772 47.9611 353.44 44.391 351.167 37.8913C350.458 35.373 349.579 32.8857 349.066 30.3273C348.354 26.785 347.686 23.2273 347.668 19.5706C347.661 18.5095 347.287 17.1885 346.591 16.443C344.506 14.2001 342.114 12.2696 339.135 11.2766C332.731 9.63074 331.491 19.6294 331.045 21.9156C330.789 23.2397 330.835 24.6195 330.745 25.9776C330.216 25.5723 329.944 25.1114 329.74 24.6195C328.481 21.5939 328.781 18.4817 329.251 15.3602C329.579 13.1853 330.554 11.224 331.89 9.60599C332.376 9.0182 332.97 8.37781 332.994 7.96945C333.019 7.56109 332.521 6.81861 332.141 6.17823C331.008 4.26016 329.551 2.62981 327.8 1.24385C326.235 0.00329538 325.022 -0.135919 323.299 0.721023C320.768 1.98014 319.082 3.69712 318.334 6.65774C317.368 10.4753 316.651 14.2032 316.901 18.1785C317.096 21.266 318.037 24.1678 318.464 27.1872C319.33 33.2786 322.959 43.862 327.611 51.5435C328.966 53.7493 330.968 55.4044 333.106 56.8492C338.059 60.1965 343.166 63.2345 348.784 65.4093C357.604 68.8216 366.35 72.4226 375.127 75.9432C380.819 78.2263 386.821 79.473 392.68 81.2024C396.089 82.2078 399.514 83.1607 402.902 84.2311C410.558 86.6565 416.699 91.2227 421.408 97.6885C423.122 100.043 424.597 102.57 426.185 105.017C428.174 108.083 432.505 118.58 432.632 119.347C432.715 119.307 434.392 121.309 434.881 121.748C442.736 128.804 449.95 136.467 456.691 144.591C459.778 148.313 462.996 151.929 466.009 155.71C468.181 158.432 470.09 161.365 472.169 164.165C473.524 165.99 475.083 167.673 476.351 169.554C478.937 173.384 481.446 177.27 483.881 181.199C489.276 189.92 493.945 199.046 498.121 208.392C500.698 214.155 502.579 220.231 504.742 226.18C505.908 229.388 507.099 232.59 508.114 235.848C509.36 239.851 510.542 243.882 511.56 247.95C513.06 253.952 514.375 259.997 515.805 266.017C517.218 271.985 517.945 278.045 518.36 284.155C518.654 288.48 519.214 292.793 519.359 297.121C519.486 300.886 519.328 304.672 519.065 308.434C518.713 313.468 518.323 318.513 517.617 323.51C516.581 330.863 514.394 337.938 511.761 344.874C509.67 350.387 507.764 355.978 505.41 361.376C503.455 365.859 501.005 370.131 498.7 374.456C497.029 377.593 495.185 380.64 493.515 383.777C490.582 389.284 486.662 394.076 482.823 398.939C477.057 406.243 470.523 412.758 463.228 418.525C462.792 418.872 462.374 419.243 462.058 419.753C469.585 417.541 474.94 412.171 480.726 407.19C480.135 408.183 479.538 409.173 478.959 410.175C474.777 417.405 468.246 421.659 460.58 424.248C457.854 425.17 454.86 425.285 451.989 425.78C449.269 426.25 446.553 426.736 443.614 427.255C443.995 426.021 444.326 424.675 444.827 423.398C446.2 419.883 447.84 416.523 450.179 413.504C453.672 408.99 457.805 405.365 462.915 402.72C466.631 400.795 474.739 398.611 474.739 398.611C474.739 398.611 464.979 403.833 461.65 406.97C459.064 409.405 456.62 411.997 454.185 414.587C451.246 418.182 447.803 424.344 447.803 424.344C447.803 424.344 457.384 421.841 467.615 411.707C473.128 406.339 485.926 389.68 486.365 388.161C485.985 388.384 485.607 388.609 485.227 388.832C483.392 389.912 481.62 391.118 479.708 392.04C474.975 394.33 469.938 394.797 464.731 394.435C460.635 394.15 456.518 394.187 452.249 394.076C452.143 393.278 452.815 392.65 453.381 391.972C457.201 387.406 461.628 383.523 466.631 380.297C467.407 379.796 468.162 379.257 468.945 378.762C471.838 376.94 474.727 375.26 478.282 374.809C480.862 374.481 483.349 373.416 485.87 372.665C486.539 372.467 487.191 372.21 487.937 372.157C486.944 373.104 485.691 373.649 484.438 374.023C477.354 376.133 471.194 379.895 465.502 384.492C463.361 386.221 461.307 388.059 459.324 390.07C466.371 390.552 473.295 390.404 479.773 387.545C485.991 384.801 490.703 380.151 494.653 374.682C488.717 380.959 481.27 384.284 473.044 386.119C473.044 386.119 471.958 386.336 471.915 386.264C471.881 386.206 472.815 385.735 472.815 385.735C473.437 385.395 474.05 385.03 474.684 384.714C477.103 383.505 479.538 382.329 481.954 381.11C487.501 378.311 492.024 374.218 496.28 369.775C498.557 367.396 500.742 364.986 501.899 361.828C502.561 360.024 503.207 358.214 503.94 356.442C505.71 352.72 506.23 351.216 506.18 351.185C506.112 351.142 505.524 352.055 505.524 352.055C505.036 352.769 504.531 353.475 504.061 354.202C499.637 361.079 494.279 364.238 486.65 367.053C483.767 368.117 470.705 370.31 467.25 370.239C470.622 367.393 472.936 363.616 474.869 360.68C479.265 354.004 484.877 348.661 492.726 346.134C497.048 344.741 500.906 342.486 504.435 339.655C504.531 339.578 505.425 338.941 505.425 338.941C505.401 339.495 504.692 340.469 504.429 340.809C501.923 344.03 498.477 346.047 495.065 348.123C489.957 351.229 484.865 354.36 480.924 358.991C478.031 361.608 475.584 365.435 475.142 366.221C478.498 365.456 481.487 364.887 484.41 364.086C492.225 361.951 498.477 357.413 503.551 351.201C504.757 349.722 505.685 348.011 506.688 346.375C506.966 345.923 507.275 345.27 507.365 344.451C504.445 347.105 501.976 349.62 499.226 351.776C496.466 353.939 493.447 355.776 490.338 357.416C490.338 357.416 488.995 358.035 488.955 357.973C488.908 357.905 490.068 357.029 490.068 357.029C492.596 355.118 495.145 353.234 497.648 351.291C502.356 347.634 506.347 343.29 509.376 338.158C510.329 336.546 510.83 334.613 511.269 332.76C512.284 328.481 513.138 324.159 513.775 319.748C513.537 319.726 513.193 320.988 513.113 321.242C510.796 328.357 506.381 332.982 500.568 337.369C498.18 339.173 495.148 340.163 492.336 341.354C489.645 342.492 481.48 343.451 478.359 343.219C478.359 343.219 478.851 342.755 478.968 342.65C482.817 339.154 485.576 334.802 488.16 330.393C490.573 326.272 493.691 322.798 497.054 319.541C498.752 317.898 500.995 316.818 502.994 315.485L504.117 314.838L503.309 315.834C501.091 318.319 498.755 320.707 496.689 323.309C494.613 325.926 492.8 328.75 490.891 331.497C488.964 334.272 487.061 337.069 484.862 340.265C486.566 339.73 487.909 339.476 489.097 338.904C494.7 336.212 500.036 333.085 504.537 328.726C508.807 324.589 512.105 319.856 513.354 313.916C513.413 313.638 513.611 312.004 513.611 312.004C511.266 316.58 508.429 321.081 504.705 324.373C503.814 325.162 502.851 325.87 501.67 326.421C501.914 326.059 502.128 325.666 502.412 325.338C508.377 318.433 512.333 310.442 515.016 301.789C515.665 299.698 515.857 295.818 515.149 293.282C515.149 293.282 514.282 296.66 514.032 297.433C512.562 301.965 509.314 305.164 505.961 308.27C503.498 310.55 500.704 312.369 497.818 314.102C494.653 316.001 491.693 318.235 488.642 320.32C488.314 320.543 487.971 320.741 487.491 321.041C486.715 318.408 486.842 315.871 487.556 313.536C489.858 306 493.645 299.293 499.442 293.835C499.702 293.591 499.974 293.362 500.262 293.152C500.355 293.084 500.977 292.709 501.323 292.635C501.082 293.173 500.451 293.99 500.228 294.386C497.864 298.609 495.461 302.813 493.125 307.051C491.476 310.04 490.143 312.824 490.164 315.983C490.563 315.723 490.882 315.543 491.17 315.324C493.314 313.675 495.99 311.912 498.245 310.436C501.376 308.385 504.039 305.836 506.65 303.209C509.302 300.545 512.299 294.42 512.671 290.705C510.072 295.812 506.446 299.472 502.298 302.754C502.452 302.451 502.579 302.129 502.765 301.848C504.411 299.351 506.112 296.892 507.708 294.367C510.354 290.185 512.241 285.65 513.494 280.879C513.825 279.62 513.71 278.163 513.478 276.854C512.086 269.015 510.632 261.188 509.125 253.37C508.776 251.561 508.2 249.788 507.622 248.034C504.933 239.86 502.397 231.625 499.433 223.551C497.23 217.552 494.567 211.708 491.891 205.898C489.75 201.252 487.42 196.679 484.911 192.221C482.894 188.633 480.624 185.161 478.223 181.814C472.874 174.355 467.429 166.962 461.913 159.623C458.151 154.618 454.396 149.588 450.296 144.864C445.826 139.713 441.325 134.556 436.149 130.06C435.892 129.838 435.351 129.581 435.351 129.581C435.351 129.581 435.679 132.43 435.939 133.869C437.164 140.678 437.844 147.521 438.018 154.442C438.157 160.06 438.593 165.659 438.367 171.296C438.036 179.611 437.956 187.94 437.727 196.258C437.597 200.914 438.194 205.493 439.135 210.031C439.326 210.963 439.79 211.894 440.335 212.683C442.284 215.495 444.66 217.911 447.187 220.225C452.279 224.884 457.226 229.707 462.241 234.453C463.064 235.232 463.967 235.928 464.787 236.711C467.788 239.57 470.38 242.784 472.79 246.137C474.238 248.154 475.664 250.221 476.812 252.418C478.127 254.933 479.132 257.609 480.243 260.229C480.63 261.145 480.97 262.085 481.245 263.041C482.727 268.164 484.237 273.281 485.632 278.429C486.873 283.008 487.086 287.704 486.616 292.394C486.158 296.944 484.608 301.238 482.74 305.378C481.545 308.023 479.983 310.498 478.644 313.078C472.722 324.509 465.344 334.956 457.189 344.878C452.719 350.319 448.199 355.715 443.122 360.615C438.107 365.456 433.257 370.481 428.059 375.115C424.963 377.874 422.484 380.767 421.04 384.755C418.361 392.158 416.387 399.678 415.632 407.521C415.487 409.034 416.474 410.342 417.894 411.15C418.064 410.816 420.047 402.648 420.959 398.921C422.432 392.906 425.386 387.663 429.167 382.886C434.578 376.052 440.848 370.041 447.509 364.439C448.258 363.811 449.102 363.294 449.904 362.725C448.477 364.794 446.717 366.462 445.173 368.312C438.964 375.749 432.913 383.288 428.378 391.944C425.077 398.249 422.72 404.839 421.358 411.796C420.771 414.803 421.3 415.827 423.979 417.492C429.04 399.781 436.428 388.464 442.903 382.236C442.488 383.013 442.244 383.505 441.968 383.978C439.821 387.669 437.523 391.276 436.103 395.344C435.515 397.021 434.862 398.676 434.243 400.344C431.688 407.218 429.683 414.225 428.799 421.541C428.65 422.776 428.978 423.509 429.724 424.369C434.247 429.591 438.547 434.986 442.315 440.796C444.48 444.137 446.887 447.324 449.173 450.588C449.415 450.934 449.573 451.336 449.771 451.714C447.194 449.372 444.883 446.863 442.51 444.413C436.817 438.525 431.15 432.607 425.358 426.822C423.202 424.666 420.74 422.813 418.373 420.873C417.201 419.911 415.883 419.527 414.426 420.353C414.057 420.564 413.637 420.681 413.244 420.848C408.235 422.986 403.864 426.216 399.316 429.121C396.272 431.064 393.596 433.576 390.654 435.689C384.764 439.918 378.79 444.032 372.872 448.224C368.172 451.55 363.575 455.027 358.799 458.241C353.611 461.731 348.283 465.013 342.987 468.342C338.368 471.247 333.87 474.362 328.793 476.469C327.881 476.85 327.002 477.317 326.083 477.688C322.392 479.173 318.73 480.735 314.986 482.066C313.204 482.7 311.252 483.114 309.34 482.492C306.435 481.549 303.496 480.664 300.694 479.47C296.384 477.629 292.18 475.538 287.923 473.577C287.218 473.252 286.475 472.983 285.727 472.794C282.549 472.002 279.36 472.287 276.186 472.8C275.452 472.921 274.756 473.28 274.039 473.533C274.039 474.393 274.076 475.034 274.032 475.665C273.55 479.173 277.751 480.182 278.475 480.621C276.838 480.63 275.391 480.33 273.977 479.909C272.659 479.519 272.031 478.567 272.065 477.171C272.09 476.067 272.071 474.959 272.071 473.815C271.214 473.815 270.5 473.737 269.803 473.827C266.41 474.263 263.217 475.179 261.024 478.069C260.625 478.594 260.195 479.393 260.306 479.965C260.795 484.225 261.454 485.549 265.225 488.222C263.254 487.705 260.482 487.309 259.183 486.186C257.574 484.797 257.732 482.613 257.416 480.519C255.876 480.788 254.481 481.008 253.095 481.277C251.501 481.586 250.221 482.428 249.107 483.603C247.944 484.831 247.183 486.029 248.358 487.699C248.801 488.324 249.048 489.107 249.286 489.849C249.58 490.765 250.174 491.248 251.078 491.476C255.867 492.695 260.204 495.068 264.789 496.804C267.171 497.707 269.655 498.456 272.161 498.876C275.805 499.492 279.511 499.733 283.187 500.17C284.953 500.38 286.738 500.544 288.461 500.952C294.828 502.459 301.179 504.049 307.527 505.633C309.798 506.199 312.202 506.261 314.253 505.466C319.88 503.288 325.387 500.776 330.885 498.279C334.117 496.813 337.23 495.081 340.428 493.537C349.592 489.113 358.761 484.708 367.943 480.324C373.846 477.502 379.77 474.724 385.689 471.94C386.564 471.529 387.467 471.179 388.362 470.802C387.628 472.206 386.675 473.301 385.661 474.335C381.221 478.848 376.729 483.306 372.324 487.851C364.791 495.622 357.082 503.189 348.472 509.797C343.343 513.735 338.275 517.76 332.462 520.668C328.864 522.469 325.127 523.92 320.988 522.704C315.945 521.222 310.779 520.015 305.944 518.02C301.64 516.244 297.625 516.718 293.451 517.803C292.805 517.971 291.827 518.552 291.716 518.753C291.604 518.954 291.632 519.793 291.645 520.213C291.694 522.039 292.771 522.967 294.423 523.802C296.075 524.64 295.877 524.34 296.455 524.644C295.744 524.897 294.902 524.823 294.352 524.749C290.704 524.152 290.089 521.853 289.956 520.343C289.912 519.845 289.884 519.511 289.693 519.384C289.498 519.257 288.904 519.285 288.43 519.36C286.311 519.687 284.464 520.38 282.945 521.435C281.572 522.391 280.081 523.632 280.081 525.234C280.081 527.22 279.808 529.312 282.426 531.951C283.032 532.436 283.626 532.938 284.223 533.433C280.665 532.879 278.135 531.298 277.692 527.75C277.658 527.477 277.655 527.001 277.485 526.917C277.315 526.834 276.9 527.029 276.532 527.131C273.036 528.096 269.531 530.992 269.24 532.625C268.922 534.429 270.561 534.853 271.171 536.053C271.601 536.901 272.235 537.235 273.142 537.454C276.316 538.231 279.471 539.085 282.614 539.985C285.9 540.925 289.154 542.008 292.613 542.055C295.818 542.098 299.023 542.014 302.225 542.079C304.644 542.129 307.073 542.194 309.47 542.485C314.699 543.119 319.893 544.047 325.13 544.545C327.03 544.724 329.26 544.492 330.915 543.632C335.766 541.111 340.484 538.308 345.106 535.382C352.197 530.89 359.142 526.175 366.189 521.618C368.219 520.306 370.403 519.239 372.491 518.017C380.531 513.305 388.563 508.578 396.591 503.845C397.064 503.566 397.475 503.177 397.871 502.873C395.981 495.848 396.371 479.148 398.468 475.331C398.533 475.792 398.499 476.633 398.496 476.97C398.388 485.623 400.173 493.958 403.001 502.057C405.726 509.865 409.383 517.284 413.272 524.579C413.699 525.38 414.095 526.193 414.509 527.01C411.883 529.238 409.497 531.487 406.886 533.436C396.928 540.87 388.247 549.748 378.91 557.888C378.128 558.572 377.676 559.354 377.506 560.412C377.206 562.306 376.754 564.18 376.336 566.055C375.142 571.395 373.896 576.719 374.524 582.275C374.743 584.215 374.938 584.781 376.838 584.923C380.927 585.227 384.47 587.12 388.176 588.549C388.377 588.626 389.16 588.858 389.587 589.36C388.284 589.474 386.654 589.567 385.698 589.7C383.817 589.966 380.971 589.774 379.331 591.046C378.084 592.011 378.941 592.775 380.244 593.719C381.973 594.971 383.709 596.215 385.444 597.459C386.205 598.003 386.982 598.232 387.993 598.257C397.138 598.483 406.135 596.828 415.211 596.206C421.049 595.807 426.806 594.86 432.564 593.901C434.451 593.586 436.527 593.7 438.203 592.936C442.986 590.749 447.71 588.391 452.261 585.762C456.935 583.058 461.387 579.964 465.913 577.007C466.677 576.509 467.432 575.924 468.017 575.231C471.497 571.132 474.149 566.491 476.497 561.69C477.576 559.481 479.108 557.73 481.106 556.496C485.827 553.578 490.631 550.794 495.461 548.059C498.681 546.237 502.146 544.82 505.249 542.828C513.395 537.594 521.42 532.173 529.454 526.766C533.117 524.3 536.841 521.887 540.244 519.093C545.191 515.028 549.918 510.688 554.655 506.375C558.55 502.83 562.426 499.254 565.182 494.66C566.612 492.281 568.227 490.013 569.702 487.662C574.717 479.68 582.34 467.76 585.919 459.067C589.724 449.823 592.32 440.199 593.604 430.262C594.464 423.605 594.776 416.919 594.176 410.225C594.024 408.539 593.635 406.862 593.205 405.219C592.815 403.725 591.565 402.921 590.061 402.834C586.853 402.652 584.122 404.056 581.436 405.488C578.364 407.131 575.36 408.904 572.697 411.19C569.458 413.971 566.101 416.622 562.961 419.512C559.716 422.497 556.563 425.597 553.569 428.83C549.361 433.371 545.092 437.888 541.287 442.761C535.601 450.04 528.176 461.818 524.609 470.319C521.908 476.751 518.836 483.025 515.13 488.955C513.091 492.216 510.932 495.399 508.804 498.601C503.875 506.017 498.697 513.25 492.918 520.034C489.082 524.538 485.035 528.857 480.456 532.619C477.938 534.689 475.241 536.536 472.707 538.416C471.469 537.241 470.458 536.251 469.415 535.298C468.728 534.67 468.521 533.928 468.509 533.012C468.478 530.803 468.732 528.65 469.09 526.463C469.533 523.771 470.483 521.442 472.199 519.344C473.777 517.417 475.203 515.369 476.741 513.407C478.888 510.666 480.995 507.885 483.272 505.252C485.645 502.508 488.141 499.866 490.684 497.28C494.622 493.271 498.341 489.076 502.056 484.859C505.961 480.429 510.165 476.287 513.357 471.263C515.081 468.552 516.918 465.91 517.602 462.702C518.846 456.862 519.95 450.999 521.667 445.257C523.112 440.428 523.953 435.423 525.259 430.55C525.748 428.728 526.478 426.804 527.638 425.359C532.894 418.807 538.302 412.378 543.737 405.971C546.039 403.261 548.573 400.746 550.939 398.091C551.979 396.925 552.749 395.508 553.847 394.413C556.48 391.793 558.902 389.012 561.086 386.008C564.477 381.349 568.063 376.819 571.268 372.04C574.912 366.604 578.259 360.965 581.681 355.384C583.317 352.714 584.938 350.025 586.368 347.241C588.382 343.318 590.043 339.21 592.156 335.346C594.761 330.588 596.784 325.576 598.925 320.62C603.08 311.002 606.269 301.04 609.01 290.927C610.585 285.127 611.176 279.181 612.017 273.272C612.871 267.298 612.339 261.343 611.225 255.459L611.234 255.446ZM481.286 245.599C477.78 241.469 470.315 232.528 466.637 225.484C465.533 223.257 464.206 221.122 463.271 218.827C461.18 213.685 459.475 208.42 458.906 202.839C458.507 198.947 457.898 195.077 457.471 191.188C457.223 188.93 457.211 186.643 456.994 184.382C456.552 179.779 456.038 175.184 455.565 170.584C455.546 170.402 455.441 168.886 455.441 168.886L455.918 169.925C457.028 172.601 458.219 175.246 459.228 177.963C461.508 184.107 462.869 190.51 464.391 196.865C465.35 200.868 466 204.945 467.042 208.924C467.958 212.42 470.817 225.633 476.395 231.693C476.042 230.719 475.77 229.707 475.324 228.776C473.765 225.534 473.047 222.066 472.311 218.579C471.089 212.797 470.294 206.953 469.802 201.081C469.397 196.24 468.62 191.485 467.469 186.783C466.745 183.819 465.842 180.898 465.028 177.956C464.957 177.697 464.96 177.415 464.883 176.765C466.9 180.205 468.583 183.37 469.585 186.863C471.114 192.19 472.812 197.474 474.161 202.848C475.51 208.225 476.435 213.707 477.7 219.105C479.903 228.516 483.429 237.364 488.698 245.547C491.34 249.655 493.521 254.088 495.588 258.524C498.786 266.602 498.372 277.906 498.1 278.695C497.388 273.126 494.987 268.177 492.973 263.088C490.331 256.405 485.849 250.973 481.289 245.596L481.286 245.599ZM428.31 525.157C426.828 525.324 425.841 524.78 424.963 523.514C422.506 519.966 420.904 516.003 419.317 512.055C417.262 506.945 415.4 501.747 414.692 496.166C419.242 505.853 423.765 515.483 428.31 525.16V525.157ZM406.091 491.35C405.89 489.252 406.694 483.387 406.694 483.387C406.694 483.387 406.964 485.295 406.982 485.506C407.375 490.576 408.653 495.418 410.271 500.238C411.997 505.376 413.785 510.475 416.223 515.307C417.949 518.728 419.948 522.017 421.841 525.389C419.954 525.674 418.574 525.228 417.402 523.285C407.923 506.255 406.527 495.885 406.094 491.347L406.091 491.35ZM432.406 584.917C431.648 584.589 430.952 584.301 430.265 583.992C429.597 583.692 428.978 583.386 429.253 582.427C429.541 581.421 430.107 580.92 431.088 581.081C431.564 581.158 432.01 581.428 432.462 581.607C434.067 579.992 434.08 579.825 432.78 578.077C430.209 574.625 427.233 573.916 423.744 575.936C421.399 577.291 419.855 580.796 420.424 583.423C421.238 586.507 426.364 587.268 426.364 587.268C422.098 588.15 413.955 586.374 413.621 585.96C413.287 585.545 415.644 583.284 416.616 582.102C418.689 579.574 420.415 576.914 422.441 574.349C423.493 573.019 424.99 572.592 426.825 572.765C429.931 573.056 433.074 572.911 436.202 572.994C437.309 573.022 439.484 572.737 439.725 573.291C440.208 574.086 438.188 583.472 432.409 584.914L432.406 584.917ZM544.557 490.672C538.493 499.461 531.294 507.075 521.995 512.476C529.516 505.209 537.036 497.939 544.557 490.672ZM511.105 524.269C516.615 520.359 522.088 516.399 527.529 512.396C529.701 510.796 531.734 509.008 533.868 507.353C540.009 502.586 545.46 497.064 550.958 491.606C552.814 489.766 554.293 487.544 555.963 485.515C556.631 484.701 558.008 483.096 558.008 483.096C558.008 483.096 557.321 484.76 556.922 485.564C555.193 489.032 552.832 492.064 550.215 494.889C546.543 498.846 542.93 502.873 539.019 506.586C536.25 509.215 533.083 511.437 530.011 513.729C527.164 515.851 524.229 517.859 521.29 519.855C517.515 522.422 513.416 524.393 509.243 526.215C508.213 526.664 507.183 527.109 506.032 527.335C507.727 526.32 509.5 525.408 511.105 524.269ZM482.189 544.415C482.474 544.01 482.851 543.663 483.095 543.236C484.101 541.485 485.648 540.526 487.485 539.756C495.012 536.6 502.626 533.6 509.948 530.017C515.675 527.214 521.03 523.644 526.54 520.402C527.579 519.79 528.569 519.093 529.596 518.459C534.289 515.554 538.234 511.731 542.203 507.972C546.593 503.817 550.986 499.631 555.02 495.139C562.581 486.725 568.638 477.28 573.247 466.928C573.362 466.675 573.504 466.433 573.894 466.245C573.668 467.058 573.495 467.894 573.204 468.682C569.749 478.031 564.814 486.517 558.686 494.391C554.46 499.82 549.42 504.399 544.557 509.178C539.771 513.878 534.605 518.11 529.117 521.952C523.232 526.073 517.212 530.011 510.784 533.207C504.872 536.146 488.29 542.268 485.808 544.369C483.473 546.444 481.239 548.638 478.953 550.769C478.504 551.187 477.994 551.534 477.511 551.914L476.821 552.397C476.821 552.397 477.926 549.526 482.189 544.415ZM502.35 403.654C501.558 405.003 500.766 406.355 499.891 407.651C498.09 410.318 495.544 414.16 495.207 417.554C491.089 415.122 489.403 405.649 490.161 400.449C490.712 396.675 492.29 393.312 494.18 390.048C493.691 395.4 492.964 400.715 494.038 406.039C494.483 398.596 495.705 391.353 499.074 384.529C498.888 386.348 498.718 388.167 498.511 389.98C498.291 391.886 497.945 393.785 497.824 395.697C497.704 397.606 497.799 399.53 497.936 401.46C499 393.618 500.94 385.992 502.988 378.369C504.794 382.682 505.261 387.152 505.543 391.7C505.812 396.102 504.519 399.966 502.356 403.654H502.35ZM521.42 375.158C520.909 378.419 519.501 381.543 518.465 384.721C517.586 387.409 516.655 390.076 515.668 392.99C515.668 392.99 514.316 392.04 512.801 389.68C511.285 387.319 507.111 377.896 507.755 369.831C507.95 367.371 508.559 364.924 509.203 362.53C509.794 360.34 510.675 358.224 511.461 356.086C511.671 355.517 511.993 354.991 512.262 354.443L513.231 352.686L512.921 354.561C511.603 363.56 511.699 372.513 513.636 381.42C513.893 371.127 515.211 360.946 516.699 350.65C517.515 350.926 517.837 351.625 518.15 352.274C521.658 359.554 522.651 367.257 521.42 375.155V375.158ZM534.487 351.059C533.643 355.544 532.841 360.021 533.581 364.612L533.865 365.673C532.752 365.531 531.378 364.822 530.704 364.105C527.195 360.358 523.87 356.503 521.915 351.628C519.532 345.682 518.83 339.609 519.427 333.233C519.867 328.54 520.708 323.94 521.522 319.318C521.676 318.442 521.955 317.591 522.177 316.728L522.62 315.052L522.598 316.765C522.49 323.142 522.812 329.465 523.993 335.742C525.163 341.957 526.561 348.092 528.86 354.007C527.635 342.607 525.896 331.259 525.738 319.377C526.459 319.998 526.963 320.354 527.369 320.797C530.772 324.506 532.996 328.831 533.868 333.787C534.481 337.28 535.143 340.791 535.35 344.321C535.48 346.545 534.902 348.831 534.484 351.062L534.487 351.059ZM538.005 324.685C534.104 322.201 530.917 318.987 528.365 315.147C526.369 312.147 525.447 308.676 524.321 305.319C522.49 299.856 522.663 294.101 522.159 288.449L522.057 285.733C523.065 289.012 524.396 293.48 525.169 296.332C526.864 302.569 529.646 308.295 533.11 313.715C533.262 313.953 533.828 314.507 534.23 314.693C532.278 308.917 530.342 303.37 528.529 297.786C526.71 292.186 525.593 286.414 524.371 280.508C525.874 280.517 526.722 281.414 527.573 282.2C531.127 285.473 533.881 289.309 535.743 293.795C537.974 299.172 539.183 304.722 539.391 310.563C539.576 315.788 540.176 320.998 540.606 326.365C539.752 325.814 538.88 325.248 538.002 324.688L538.005 324.685ZM573.594 286.377C562.952 282.933 554.837 276.137 548.458 267.097C546.076 263.725 543.542 260.455 541.268 257.012C534.274 246.425 527.87 235.492 522.403 224.03C519.31 217.543 516.399 210.959 513.153 204.549C509.744 197.821 506.103 191.207 502.44 184.611C498.195 176.97 492.658 170.281 486.743 163.893C486.26 163.37 483.992 160.521 483.992 160.521L485.382 161.56C486.857 162.838 488.336 164.112 489.805 165.396C494.947 169.901 499.479 174.999 504.015 180.082C507.894 184.431 511.161 189.227 514.221 194.207C518.378 200.973 522.094 207.974 525.939 214.904C527.83 218.31 529.33 221.93 531.096 225.407C532.284 227.749 533.599 230.029 534.905 232.312C537.163 236.266 539.477 240.188 541.729 244.148C542.889 246.187 543.92 248.3 545.098 250.326C546.06 251.978 547.156 253.55 548.192 255.158C548.461 255.524 548.764 255.756 549.08 255.957C549.08 255.957 548.303 254.073 548.093 253.661C545.281 248.151 542.37 242.691 539.666 237.132C538.212 234.137 537.126 230.966 535.839 227.891C533.732 222.855 531.746 217.759 529.435 212.819C527.118 207.872 524.668 202.962 521.905 198.254C518.391 192.261 514.966 186.182 510.456 180.827C506.511 176.143 502.239 171.778 497.806 167.568C497.527 167.302 496.485 166.296 496.485 166.296C496.485 166.296 498.743 167.404 499.451 167.939C505.218 172.301 510.242 177.421 514.954 182.888C521.775 190.798 527.709 199.321 532.56 208.553C535.935 214.975 538.954 221.586 542.06 228.148C545.442 235.291 548.86 242.419 552.034 249.655C555.543 257.658 560.164 265.024 565.059 272.18C567.917 276.362 572.864 283.116 581.78 288.251C578.745 287.571 576.103 287.187 573.6 286.377H573.594Z" fill="#F0F0EC" fill-opacity="0.4"/>
<path d="M279.437 23.1535C280.248 23.3794 280.99 23.8558 281.767 24.2085C290.8 28.3292 299.212 33.5266 307.295 39.2405C312.174 42.6869 320.938 48.9268 323.698 51.1759C322.866 49.9693 320.759 44.8091 319.713 43.6892C318.668 42.5693 315.726 40.4223 314.55 39.3921C313.374 38.3619 307.1 34.3123 303.444 31.6023C302.373 30.8072 301.213 30.1328 300.093 29.4027C306.033 31.3455 312.589 34.6434 317.678 38.3124C316.669 36.3449 314.692 30.8382 314.729 29.6471C314.729 29.6471 287.032 18.8998 275.765 15.1472C273.977 14.5501 272.08 14.2748 270.051 13.8076C270.175 15.3916 270.781 16.4743 271.647 17.4241C273.856 19.8557 276.099 22.2316 279.437 23.1535Z" fill="#F0F0EC" fill-opacity="0.4"/>
<path d="M530.886 349.221C532.065 344.751 530.144 330.198 527.755 325.938C528.798 333.877 528.965 341.549 530.886 349.221Z" fill="#F0F0EC" fill-opacity="0.4"/>
<path d="M534.351 305.022C533.135 298.794 531.285 292.78 528.281 287.165C528.789 293.637 530.898 299.558 534.351 305.022Z" fill="#F0F0EC" fill-opacity="0.4"/>
<path d="M516.006 367.802C515.532 371.625 515.662 374.394 516.513 375.783C517.098 370.416 517.568 365.225 517.252 359.975C516.194 362.484 516.33 365.181 516.003 367.802H516.006Z" fill="#F0F0EC" fill-opacity="0.4"/>
<path d="M422.843 251.99C425.755 257.713 428.715 263.415 431.567 269.166C432.944 271.944 434.992 282.082 435.218 285.247C432.041 273.838 426.744 263.449 421.723 255.712C424.223 264.253 426.679 270.66 429.813 278.97L430.166 279.904C428.913 279.422 423.487 267.313 420.443 261.089C420.316 263.393 420.235 265.42 420.09 267.44C419.453 276.155 421.736 283.849 428.393 289.767C431.407 292.446 434.822 294.67 436.428 299.023C437.557 297.21 438.844 289.17 439.546 284.953C440.434 279.613 439.506 274.453 437.315 269.55C436.356 267.406 435.104 265.389 433.928 263.344C431.546 259.195 428.573 255.523 424.922 252.42C424.291 251.882 423.425 251.065 422.317 251.016C422.317 251.016 422.747 251.795 422.843 251.987V251.99Z" fill="#F0F0EC" fill-opacity="0.4"/>
<path d="M415.354 324.592L415.264 323.537C413.748 313.585 412.232 303.633 410.657 293.275C408.804 299.787 410.017 306.04 409.268 312.242C408.579 308.205 407.886 304.168 407.196 300.131C406.379 301.965 405.59 303.834 405.42 305.758C405.172 308.586 405.349 311.454 405.386 314.306C405.612 318.399 408.579 325.542 410.376 330.025C411.641 333.18 413.643 335.927 414.831 339.111C415.007 339.581 415.112 340.079 415.394 341.072C416.934 337.465 418.28 334.362 419.586 331.244C421.68 326.232 422.785 320.988 423.147 315.581C423.406 311.692 423.1 307.837 422.147 304.066C421.219 300.394 420.455 296.657 418.076 293.51C417.03 292.131 416.31 290.51 415.369 289.046C414.794 288.152 414.073 287.351 413.417 286.506L412.978 286.018L412.913 286.692C412.9 287.447 412.82 288.208 412.891 288.953C413.207 292.264 413.556 295.571 413.915 298.878C414.537 304.62 415.258 310.349 415.771 316.1C415.994 318.588 415.796 321.112 415.793 323.618C415.731 324.029 415.61 324.379 415.363 324.595L415.354 324.592Z" fill="#F0F0EC" fill-opacity="0.4"/>
<path d="M439.75 225.75C437.492 222.709 435.363 219.544 431.964 217.54C430.472 216.661 429.189 215.436 427.759 214.443C426.887 213.837 425.915 213.369 424.987 212.837L424.325 212.516L424.588 213.199C431.014 222.174 436.248 231.096 441.359 244.445L440.533 243.263C435.342 234.638 430.587 227.569 425.182 218.592C425.98 227.012 431.549 234.979 433.56 240.906C431.382 237.438 426.605 231.272 424.427 227.804C424.372 229.812 424.353 231.842 424.929 233.682C425.776 236.392 426.138 241.843 439.37 253.485C441.739 255.92 444.023 258.441 446.337 260.934C446.677 261.303 446.965 261.723 447.602 262.534C447.651 258.611 447.716 255.23 447.732 251.848C447.76 246.416 446.782 241.147 445.059 236.009C443.818 232.315 442.067 228.866 439.75 225.744V225.75Z" fill="#F0F0EC" fill-opacity="0.4"/>
</svg>
